  0
SECTION
  2
HEADER
  9
$ACADVER
  1
AC1018
  9
$ACADMAINTVER
 70
     0
  9
$DWGCODEPAGE
  3
ASCII
  9
$INSBASE
 10
0.0
 20
0.0
 30
0.0
  9
$EXTMIN
 10
1.000000000000000E+20
 20
1.000000000000000E+20
 30
1.000000000000000E+20
  9
$EXTMAX
 10
-1.000000000000000E+20
 20
-1.000000000000000E+20
 30
-1.000000000000000E+20
  9
$LIMMIN
 10
0.0
 20
0.0
  9
$LIMMAX
 10
12.0
 20
9.0
  9
$ORTHOMODE
 70
     0
  9
$REGENMODE
 70
     1
  9
$FILLMODE
 70
     1
  9
$QTEXTMODE
 70
     0
  9
$MIRRTEXT
 70
     1
  9
$LTSCALE
 40
1.0
  9
$ATTMODE
 70
     1
  9
$TEXTSIZE
 40
0.2
  9
$TRACEWID
 40
0.05
  9
$TEXTSTYLE
  7
Standard
  9
$CLAYER
  8
0
  9
$CELTYPE
  6
ByLayer
  9
$CECOLOR
 62
   256
  9
$CELTSCALE
 40
1.0
  9
$DISPSILH
 70
     0
  9
$DIMSCALE
 40
1.0
  9
$DIMASZ
 40
0.18
  9
$DIMEXO
 40
0.0625
  9
$DIMDLI
 40
0.38
  9
$DIMRND
 40
0.0
  9
$DIMDLE
 40
0.0
  9
$DIMEXE
 40
0.18
  9
$DIMTP
 40
0.0
  9
$DIMTM
 40
0.0
  9
$DIMTXT
 40
0.18
  9
$DIMCEN
 40
0.09
  9
$DIMTSZ
 40
0.0
  9
$DIMTOL
 70
     0
  9
$DIMLIM
 70
     0
  9
$DIMTIH
 70
     1
  9
$DIMTOH
 70
     1
  9
$DIMSE1
 70
     0
  9
$DIMSE2
 70
     0
  9
$DIMTAD
 70
     0
  9
$DIMZIN
 70
     0
  9
$DIMBLK
  1

  9
$DIMASO
 70
     1
  9
$DIMSHO
 70
     1
  9
$DIMPOST
  1

  9
$DIMAPOST
  1

  9
$DIMALT
 70
     0
  9
$DIMALTD
 70
     2
  9
$DIMALTF
 40
25.4
  9
$DIMLFAC
 40
1.0
  9
$DIMTOFL
 70
     0
  9
$DIMTVP
 40
0.0
  9
$DIMTIX
 70
     0
  9
$DIMSOXD
 70
     0
  9
$DIMSAH
 70
     0
  9
$DIMBLK1
  1

  9
$DIMBLK2
  1

  9
$DIMSTYLE
  2
Standard
  9
$DIMCLRD
 70
     0
  9
$DIMCLRE
 70
     0
  9
$DIMCLRT
 70
     0
  9
$DIMTFAC
 40
1.0
  9
$DIMGAP
 40
0.09
  9
$DIMJUST
 70
     0
  9
$DIMSD1
 70
     0
  9
$DIMSD2
 70
     0
  9
$DIMTOLJ
 70
     1
  9
$DIMTZIN
 70
     0
  9
$DIMALTZ
 70
     0
  9
$DIMALTTZ
 70
     0
  9
$DIMUPT
 70
     0
  9
$DIMDEC
 70
     4
  9
$DIMTDEC
 70
     4
  9
$DIMALTU
 70
     2
  9
$DIMALTTD
 70
     2
  9
$DIMTXSTY
  7
Standard
  9
$DIMAUNIT
 70
     0
  9
$DIMADEC
 70
     0
  9
$DIMALTRND
 40
0.0
  9
$DIMAZIN
 70
     0
  9
$DIMDSEP
 70
    46
  9
$DIMATFIT
 70
     3
  9
$DIMFRAC
 70
     0
  9
$DIMLDRBLK
  1

  9
$DIMLUNIT
 70
     2
  9
$DIMLWD
 70
    -2
  9
$DIMLWE
 70
    -2
  9
$DIMTMOVE
 70
     0
  9
$LUNITS
 70
     2
  9
$LUPREC
 70
     4
  9
$SKETCHINC
 40
0.1
  9
$FILLETRAD
 40
0.5
  9
$AUNITS
 70
     0
  9
$AUPREC
 70
     0
  9
$MENU
  1
.
  9
$ELEVATION
 40
0.0
  9
$PELEVATION
 40
0.0
  9
$THICKNESS
 40
0.0
  9
$LIMCHECK
 70
     0
  9
$CHAMFERA
 40
0.5
  9
$CHAMFERB
 40
0.5
  9
$CHAMFERC
 40
1.0
  9
$CHAMFERD
 40
0.0
  9
$SKPOLY
 70
     0
  9
$TDCREATE
 40
2455131.570164363
  9
$TDUCREATE
 40
2455131.820164363
  9
$TDUPDATE
 40
2455131.570164375
  9
$TDUUPDATE
 40
2455131.820164375
  9
$TDINDWG
 40
0.0000000116
  9
$TDUSRTIMER
 40
0.0000000116
  9
$USRTIMER
 70
     1
  9
$ANGBASE
 50
0.0
  9
$ANGDIR
 70
     0
  9
$PDMODE
 70
     0
  9
$PDSIZE
 40
0.0
  9
$PLINEWID
 40
0.0
  9
$SPLFRAME
 70
     0
  9
$SPLINETYPE
 70
     6
  9
$SPLINESEGS
 70
     8
  9
$HANDSEED
  5
99
  9
$SURFTAB1
 70
     6
  9
$SURFTAB2
 70
     6
  9
$SURFTYPE
 70
     6
  9
$SURFU
 70
     6
  9
$SURFV
 70
     6
  9
$UCSBASE
  2

  9
$UCSNAME
  2

  9
$UCSORG
 10
0.0
 20
0.0
 30
0.0
  9
$UCSXDIR
 10
1.0
 20
0.0
 30
0.0
  9
$UCSYDIR
 10
0.0
 20
1.0
 30
0.0
  9
$UCSORTHOREF
  2

  9
$UCSORTHOVIEW
 70
     0
  9
$UCSORGTOP
 10
0.0
 20
0.0
 30
0.0
  9
$UCSORGBOTTOM
 10
0.0
 20
0.0
 30
0.0
  9
$UCSORGLEFT
 10
0.0
 20
0.0
 30
0.0
  9
$UCSORGRIGHT
 10
0.0
 20
0.0
 30
0.0
  9
$UCSORGFRONT
 10
0.0
 20
0.0
 30
0.0
  9
$UCSORGBACK
 10
0.0
 20
0.0
 30
0.0
  9
$PUCSBASE
  2

  9
$PUCSNAME
  2

  9
$PUCSORG
 10
0.0
 20
0.0
 30
0.0
  9
$PUCSXDIR
 10
1.0
 20
0.0
 30
0.0
  9
$PUCSYDIR
 10
0.0
 20
1.0
 30
0.0
  9
$PUCSORTHOREF
  2

  9
$PUCSORTHOVIEW
 70
     0
  9
$PUCSORGTOP
 10
0.0
 20
0.0
 30
0.0
  9
$PUCSORGBOTTOM
 10
0.0
 20
0.0
 30
0.0
  9
$PUCSORGLEFT
 10
0.0
 20
0.0
 30
0.0
  9
$PUCSORGRIGHT
 10
0.0
 20
0.0
 30
0.0
  9
$PUCSORGFRONT
 10
0.0
 20
0.0
 30
0.0
  9
$PUCSORGBACK
 10
0.0
 20
0.0
 30
0.0
  9
$USERI1
 70
     0
  9
$USERI2
 70
     0
  9
$USERI3
 70
     0
  9
$USERI4
 70
     0
  9
$USERI5
 70
     0
  9
$USERR1
 40
0.0
  9
$USERR2
 40
0.0
  9
$USERR3
 40
0.0
  9
$USERR4
 40
0.0
  9
$USERR5
 40
0.0
  9
$WORLDVIEW
 70
     1
  9
$SHADEDGE
 70
     3
  9
$SHADEDIF
 70
    70
  9
$TILEMODE
 70
     1
  9
$MAXACTVP
 70
    64
  9
$PINSBASE
 10
0.0
 20
0.0
 30
0.0
  9
$PLIMCHECK
 70
     0
  9
$PEXTMIN
 10
1.000000000000000E+20
 20
1.000000000000000E+20
 30
1.000000000000000E+20
  9
$PEXTMAX
 10
-1.000000000000000E+20
 20
-1.000000000000000E+20
 30
-1.000000000000000E+20
  9
$PLIMMIN
 10
0.0
 20
0.0
  9
$PLIMMAX
 10
12.0
 20
9.0
  9
$UNITMODE
 70
     0
  9
$VISRETAIN
 70
     1
  9
$PLINEGEN
 70
     0
  9
$PSLTSCALE
 70
     1
  9
$TREEDEPTH
 70
  3020
  9
$CMLSTYLE
  2
Standard
  9
$CMLJUST
 70
     0
  9
$CMLSCALE
 40
1.0
  9
$PROXYGRAPHICS
 70
     1
  9
$MEASUREMENT
 70
     0
  9
$CELWEIGHT
370
    -1
  9
$ENDCAPS
280
     0
  9
$JOINSTYLE
280
     0
  9
$LWDISPLAY
290
     1
  9
$INSUNITS
 70
     1
  9
$HYPERLINKBASE
  1

  9
$STYLESHEET
  1

  9
$XEDIT
290
     1
  9
$CEPSNTYPE
380
     0
  9
$PSTYLEMODE
290
     1
  9
$FINGERPRINTGUID
  2
{BF13BAA1-44B6-4533-94E4-CA0AEF29EA8C}
  9
$VERSIONGUID
  2
{FAEB1C32-E019-11D5-929B-00C0DF256EC4}
  9
$EXTNAMES
290
     1
  9
$PSVPSCALE
 40
0.0
  9
$OLESTARTUP
290
     0
  9
$SORTENTS
280
   127
  9
$INDEXCTL
280
     0
  9
$HIDETEXT
280
     1
  9
$XCLIPFRAME
290
     0
  9
$HALOGAP
280
     0
  9
$OBSCOLOR
 70
   257
  9
$OBSLTYPE
280
     0
  9
$INTERSECTIONDISPLAY
280
     0
  9
$INTERSECTIONCOLOR
 70
   257
  9
$DIMASSOC
280
     2
  9
$PROJECTNAME
  1

  0
ENDSEC
  0
SECTION
  2
CLASSES
  0
CLASS
  1
ACDBDICTIONARYWDFLT
  2
AcDbDictionaryWithDefault
  3
ObjectDBX Classes
 90
        0
 91
        3
280
     0
281
     0
  0
CLASS
  1
VISUALSTYLE
  2
AcDbVisualStyle
  3
ObjectDBX Classes
 90
     4095
 91
        3
280
     0
281
     0
  0
ENDSEC
  0
SECTION
  2
TABLES
  0
TABLE
  2
VPORT
  5
8
330
0
100
AcDbSymbolTable
 70
     1
  0
VPORT
  5
29
330
8
100
AcDbSymbolTableRecord
100
AcDbViewportTableRecord
  2
*Active
 70
     0
 10
0.0
 20
0.0
 11
1.0
 21
1.0
 12
0.0
 22
0.0
 13
0.0
 23
0.0
 14
0.5
 24
0.5
 15
0.5
 25
0.5
 16
0.0
 26
0.0
 36
1.0
 17
349.111328125
 27
464.67041015625
 37
0.0
 40
43.60201171875
 41
6.170653142348024
 42
50.0
 43
0.0
 44
0.0
 50
0.0
 51
0.0
 71
     0
 72
   100
 73
     1
 74
     3
 75
     0
 76
     0
 77
     0
 78
     0
281
     0
 65
     1
110
0.0
120
0.0
130
0.0
111
1.0
121
0.0
131
0.0
112
0.0
122
1.0
132
0.0
 79
     0
146
0.0
  0
ENDTAB
  0
TABLE
  2
LTYPE
  5
5
330
0
100
AcDbSymbolTable
 70
     1
  0
LTYPE
  5
14
330
5
100
AcDbSymbolTableRecord
100
AcDbLinetypeTableRecord
  2
ByBlock
 70
     0
  3

 72
    65
 73
     0
 40
0.0
  0
LTYPE
  5
15
330
5
100
AcDbSymbolTableRecord
100
AcDbLinetypeTableRecord
  2
ByLayer
 70
     0
  3

 72
    65
 73
     0
 40
0.0
  0
LTYPE
  5
16
330
5
100
AcDbSymbolTableRecord
100
AcDbLinetypeTableRecord
  2
Continuous
 70
     0
  3
Solid line
 72
    65
 73
     0
 40
0.0
  0
ENDTAB
  0
TABLE
  2
LAYER
  5
2
330
0
100
AcDbSymbolTable
 70
     2
  0
LAYER
  5
10
330
2
100
AcDbSymbolTableRecord
100
AcDbLayerTableRecord
  2
0
 70
     0
 62
     7
  6
Continuous
370
    -3
390
F
  0
LAYER
  5
3B
330
2
100
AcDbSymbolTableRecord
100
AcDbLayerTableRecord
  2
Layer 1
 70
     0
 62
     7
  6
Continuous
370
    -3
390
F
  0
ENDTAB
  0
TABLE
  2
STYLE
  5
3
330
0
100
AcDbSymbolTable
 70
     1
  0
STYLE
  5
11
330
3
100
AcDbSymbolTableRecord
100
AcDbTextStyleTableRecord
  2
Standard
 70
     0
 40
0.0
 41
1.0
 50
0.0
 71
     0
 42
0.2
  3
txt
  4

  0
ENDTAB
  0
TABLE
  2
VIEW
  5
6
330
0
100
AcDbSymbolTable
 70
     0
  0
ENDTAB
  0
TABLE
  2
UCS
  5
7
330
0
100
AcDbSymbolTable
 70
     0
  0
ENDTAB
  0
TABLE
  2
APPID
  5
9
330
0
100
AcDbSymbolTable
 70
     1
  0
APPID
  5
12
330
9
100
AcDbSymbolTableRecord
100
AcDbRegAppTableRecord
  2
ACAD
 70
     0
  0
ENDTAB
  0
TABLE
  2
DIMSTYLE
  5
A
330
0
100
AcDbSymbolTable
 70
     1
100
AcDbDimStyleTable
  0
DIMSTYLE
105
27
330
A
100
AcDbSymbolTableRecord
100
AcDbDimStyleTableRecord
  2
Standard
 70
     0
340
11
  0
ENDTAB
  0
TABLE
  2
BLOCK_RECORD
  5
1
330
0
100
AcDbSymbolTable
 70
     8
  0
BLOCK_RECORD
  5
1F
330
1
100
AcDbSymbolTableRecord
100
AcDbBlockTableRecord
  2
*Model_Space
340
22
  0
BLOCK_RECORD
  5
1B
330
1
100
AcDbSymbolTableRecord
100
AcDbBlockTableRecord
  2
*Paper_Space
340
1E
  0
BLOCK_RECORD
  5
23
330
1
100
AcDbSymbolTableRecord
100
AcDbBlockTableRecord
  2
*Paper_Space0
340
26
  0
BLOCK_RECORD
  5
3C
330
1
100
AcDbSymbolTableRecord
100
AcDbBlockTableRecord
  2
block 2
340
0
102
{BLKREFS
331
3D
102
}
  0
BLOCK_RECORD
  5
58
330
1
100
AcDbSymbolTableRecord
100
AcDbBlockTableRecord
  2
block 3
340
0
102
{BLKREFS
331
59
102
}
  0
BLOCK_RECORD
  5
5C
330
1
100
AcDbSymbolTableRecord
100
AcDbBlockTableRecord
  2
block 4
340
0
102
{BLKREFS
331
5D
102
}
  0
BLOCK_RECORD
  5
68
330
1
100
AcDbSymbolTableRecord
100
AcDbBlockTableRecord
  2
block 5
340
0
102
{BLKREFS
331
69
102
}
  0
BLOCK_RECORD
  5
74
330
1
100
AcDbSymbolTableRecord
100
AcDbBlockTableRecord
  2
block 6
340
0
102
{BLKREFS
331
75
102
}
  0
BLOCK_RECORD
  5
80
330
1
100
AcDbSymbolTableRecord
100
AcDbBlockTableRecord
  2
block 7
340
0
102
{BLKREFS
331
81
102
}
  0
BLOCK_RECORD
  5
8C
330
1
100
AcDbSymbolTableRecord
100
AcDbBlockTableRecord
  2
block 8
340
0
102
{BLKREFS
331
8D
102
}
  0
ENDTAB
  0
ENDSEC
  0
SECTION
  2
BLOCKS
  0
BLOCK
  5
20
330
1F
100
AcDbEntity
  8
0
100
AcDbBlockBegin
  2
*Model_Space
 70
     0
 71
     0
 10
0.0
 20
0.0
 30
0.0
  3
*Model_Space
  1

  0
ENDBLK
  5
21
330
1F
100
AcDbEntity
  8
0
100
AcDbBlockEnd
  0
BLOCK
  5
1C
330
1B
100
AcDbEntity
 67
     1
  8
0
100
AcDbBlockBegin
  2
*Paper_Space
 70
     0
 71
     0
 10
0.0
 20
0.0
 30
0.0
  3
*Paper_Space
  1

  0
ENDBLK
  5
1D
330
1B
100
AcDbEntity
 67
     1
  8
0
100
AcDbBlockEnd
  0
BLOCK
  5
24
330
23
100
AcDbEntity
  8
0
100
AcDbBlockBegin
  2
*Paper_Space0
 70
     0
 71
     0
 10
0.0
 20
0.0
 30
0.0
  3
*Paper_Space0
  1

  0
ENDBLK
  5
25
330
23
100
AcDbEntity
  8
0
100
AcDbBlockEnd
  0
BLOCK
  5
3E
330
3C
100
AcDbEntity
  8
0
100
AcDbBlockBegin
  2
block 2
 70
     0
 71
     0
 10
0.0
 20
0.0
 30
0.0
  3
block 2
  1

  0
SPLINE
  5
40
330
3C
100
AcDbEntity
  8
Layer 1
370
     0
100
AcDbSpline
210
0.0
220
0.0
230
1.0
 70
    11
 71
     3
 72
    95
 73
    91
 74
     0
 42
0.0000000001
 43
0.0000000001
 40
0.0
 40
0.0
 40
0.0
 40
0.0
 40
1.0
 40
1.0
 40
1.0
 40
2.0
 40
2.0
 40
2.0
 40
3.0
 40
3.0
 40
3.0
 40
4.0
 40
4.0
 40
4.0
 40
5.0
 40
5.0
 40
5.0
 40
6.0
 40
6.0
 40
6.0
 40
7.0
 40
7.0
 40
7.0
 40
8.0
 40
8.0
 40
8.0
 40
9.0
 40
9.0
 40
9.0
 40
10.0
 40
10.0
 40
10.0
 40
11.0
 40
11.0
 40
11.0
 40
12.0
 40
12.0
 40
12.0
 40
13.0
 40
13.0
 40
13.0
 40
14.0
 40
14.0
 40
14.0
 40
15.0
 40
15.0
 40
15.0
 40
16.0
 40
16.0
 40
16.0
 40
17.0
 40
17.0
 40
17.0
 40
18.0
 40
18.0
 40
18.0
 40
19.0
 40
19.0
 40
19.0
 40
20.0
 40
20.0
 40
20.0
 40
21.0
 40
21.0
 40
21.0
 40
22.0
 40
22.0
 40
22.0
 40
23.0
 40
23.0
 40
23.0
 40
24.0
 40
24.0
 40
24.0
 40
25.0
 40
25.0
 40
25.0
 40
26.0
 40
26.0
 40
26.0
 40
27.0
 40
27.0
 40
27.0
 40
28.0
 40
28.0
 40
28.0
 40
29.0
 40
29.0
 40
29.0
 40
30.0
 40
30.0
 40
30.0
 40
30.0
 10
288.373046875
 20
472.68359375
 30
0.0
 10
287.431640625
 20
472.50390625
 30
0.0
 10
286.763671875
 20
472.3984375
 30
0.0
 10
285.82421875
 20
470.076171875
 30
0.0
 10
285.82421875
 20
470.076171875
 30
0.0
 10
277.142578125
 20
448.99609375
 30
0.0
 10
277.142578125
 20
448.99609375
 30
0.0
 10
277.142578125
 20
448.99609375
 30
0.0
 10
276.263671875
 20
448.99609375
 30
0.0
 10
276.263671875
 20
448.99609375
 30
0.0
 10
276.263671875
 20
448.99609375
 30
0.0
 10
274.470703125
 20
466.359375
 30
0.0
 10
274.470703125
 20
466.359375
 30
0.0
 10
274.470703125
 20
466.359375
 30
0.0
 10
274.41015625
 20
466.359375
 30
0.0
 10
274.41015625
 20
466.359375
 30
0.0
 10
274.41015625
 20
466.359375
 30
0.0
 10
267.3984375
 20
448.99609375
 30
0.0
 10
267.3984375
 20
448.99609375
 30
0.0
 10
267.3984375
 20
448.99609375
 30
0.0
 10
266.51953125
 20
448.99609375
 30
0.0
 10
266.51953125
 20
448.99609375
 30
0.0
 10
266.51953125
 20
448.99609375
 30
0.0
 10
264.150390625
 20
469.68359375
 30
0.0
 10
264.150390625
 20
469.68359375
 30
0.0
 10
263.84765625
 20
472.255859375
 30
0.0
 10
263.7265625
 20
472.291015625
 30
0.0
 10
261.8125
 20
472.68359375
 30
0.0
 10
261.8125
 20
472.68359375
 30
0.0
 10
261.8125
 20
473.541015625
 30
0.0
 10
261.8125
 20
473.541015625
 30
0.0
 10
261.8125
 20
473.541015625
 30
0.0
 10
270.220703125
 20
473.541015625
 30
0.0
 10
270.220703125
 20
473.541015625
 30
0.0
 10
270.220703125
 20
473.541015625
 30
0.0
 10
270.220703125
 20
472.646484375
 30
0.0
 10
270.220703125
 20
472.646484375
 30
0.0
 10
269.06640625
 20
472.50390625
 30
0.0
 10
268.1875
 20
472.255859375
 30
0.0
 10
268.400390625
 20
470.18359375
 30
0.0
 10
268.400390625
 20
470.18359375
 30
0.0
 10
269.583984375
 20
457.8203125
 30
0.0
 10
269.583984375
 20
457.8203125
 30
0.0
 10
269.583984375
 20
457.8203125
 30
0.0
 10
269.64453125
 20
457.8203125
 30
0.0
 10
269.64453125
 20
457.8203125
 30
0.0
 10
269.64453125
 20
457.8203125
 30
0.0
 10
274.13671875
 20
468.82421875
 30
0.0
 10
274.13671875
 20
468.82421875
 30
0.0
 10
274.13671875
 20
472.291015625
 30
0.0
 10
273.5
 20
472.3984375
 30
0.0
 10
271.982421875
 20
472.68359375
 30
0.0
 10
271.982421875
 20
472.68359375
 30
0.0
 10
271.982421875
 20
473.541015625
 30
0.0
 10
271.982421875
 20
473.541015625
 30
0.0
 10
271.982421875
 20
473.541015625
 30
0.0
 10
280.146484375
 20
473.541015625
 30
0.0
 10
280.146484375
 20
473.541015625
 30
0.0
 10
280.146484375
 20
473.541015625
 30
0.0
 10
280.146484375
 20
472.646484375
 30
0.0
 10
280.146484375
 20
472.646484375
 30
0.0
 10
278.751953125
 20
472.50390625
 30
0.0
 10
278.234375
 20
472.291015625
 30
0.0
 10
278.234375
 20
470.57421875
 30
0.0
 10
278.234375
 20
470.111328125
 30
0.0
 10
278.234375
 20
470.111328125
 30
0.0
 10
278.416015625
 20
468.25390625
 30
0.0
 10
278.416015625
 20
468.25390625
 30
0.0
 10
279.41796875
 20
457.8203125
 30
0.0
 10
279.41796875
 20
457.8203125
 30
0.0
 10
279.41796875
 20
457.8203125
 30
0.0
 10
279.48046875
 20
457.8203125
 30
0.0
 10
279.48046875
 20
457.8203125
 30
0.0
 10
279.48046875
 20
457.8203125
 30
0.0
 10
284.154296875
 20
469.396484375
 30
0.0
 10
284.154296875
 20
469.396484375
 30
0.0
 10
284.607421875
 20
470.50390625
 30
0.0
 10
284.607421875
 20
470.611328125
 30
0.0
 10
284.607421875
 20
471.21875
 30
0.0
 10
284.607421875
 20
472.50390625
 30
0.0
 10
283.97265625
 20
472.541015625
 30
0.0
 10
282.697265625
 20
472.646484375
 30
0.0
 10
282.697265625
 20
472.646484375
 30
0.0
 10
282.697265625
 20
473.541015625
 30
0.0
 10
282.697265625
 20
473.541015625
 30
0.0
 10
282.697265625
 20
473.541015625
 30
0.0
 10
288.373046875
 20
473.541015625
 30
0.0
 10
288.373046875
 20
473.541015625
 30
0.0
 10
288.373046875
 20
473.541015625
 30
0.0
 10
288.373046875
 20
472.68359375
 30
0.0
 10
288.373046875
 20
472.68359375
 30
0.0
  0
HATCH
  5
41
330
3C
100
AcDbEntity
  8
Layer 1
 62
   134
420
    43171
100
AcDbHatch
 10
0.0
 20
0.0
 30
0.0
210
0.0
220
0.0
230
1.0
  2
SOLID
 70
     1
 71
     0
 91
        1
 92
        1
 93
        1
 72
     4
 94
        3
 73
     0
 74
     1
 95
       95
 96
       91
 40
0.0
 40
0.0
 40
0.0
 40
0.0
 40
1.0
 40
1.0
 40
1.0
 40
2.0
 40
2.0
 40
2.0
 40
3.0
 40
3.0
 40
3.0
 40
4.0
 40
4.0
 40
4.0
 40
5.0
 40
5.0
 40
5.0
 40
6.0
 40
6.0
 40
6.0
 40
7.0
 40
7.0
 40
7.0
 40
8.0
 40
8.0
 40
8.0
 40
9.0
 40
9.0
 40
9.0
 40
10.0
 40
10.0
 40
10.0
 40
11.0
 40
11.0
 40
11.0
 40
12.0
 40
12.0
 40
12.0
 40
13.0
 40
13.0
 40
13.0
 40
14.0
 40
14.0
 40
14.0
 40
15.0
 40
15.0
 40
15.0
 40
16.0
 40
16.0
 40
16.0
 40
17.0
 40
17.0
 40
17.0
 40
18.0
 40
18.0
 40
18.0
 40
19.0
 40
19.0
 40
19.0
 40
20.0
 40
20.0
 40
20.0
 40
21.0
 40
21.0
 40
21.0
 40
22.0
 40
22.0
 40
22.0
 40
23.0
 40
23.0
 40
23.0
 40
24.0
 40
24.0
 40
24.0
 40
25.0
 40
25.0
 40
25.0
 40
26.0
 40
26.0
 40
26.0
 40
27.0
 40
27.0
 40
27.0
 40
28.0
 40
28.0
 40
28.0
 40
29.0
 40
29.0
 40
29.0
 40
30.0
 40
30.0
 40
30.0
 40
30.0
 10
288.373046875
 20
472.68359375
 10
287.431640625
 20
472.50390625
 10
286.763671875
 20
472.3984375
 10
285.82421875
 20
470.076171875
 10
285.82421875
 20
470.076171875
 10
277.142578125
 20
448.99609375
 10
277.142578125
 20
448.99609375
 10
277.142578125
 20
448.99609375
 10
276.263671875
 20
448.99609375
 10
276.263671875
 20
448.99609375
 10
276.263671875
 20
448.99609375
 10
274.470703125
 20
466.359375
 10
274.470703125
 20
466.359375
 10
274.470703125
 20
466.359375
 10
274.41015625
 20
466.359375
 10
274.41015625
 20
466.359375
 10
274.41015625
 20
466.359375
 10
267.3984375
 20
448.99609375
 10
267.3984375
 20
448.99609375
 10
267.3984375
 20
448.99609375
 10
266.51953125
 20
448.99609375
 10
266.51953125
 20
448.99609375
 10
266.51953125
 20
448.99609375
 10
264.150390625
 20
469.68359375
 10
264.150390625
 20
469.68359375
 10
263.84765625
 20
472.255859375
 10
263.7265625
 20
472.291015625
 10
261.8125
 20
472.68359375
 10
261.8125
 20
472.68359375
 10
261.8125
 20
473.541015625
 10
261.8125
 20
473.541015625
 10
261.8125
 20
473.541015625
 10
270.220703125
 20
473.541015625
 10
270.220703125
 20
473.541015625
 10
270.220703125
 20
473.541015625
 10
270.220703125
 20
472.646484375
 10
270.220703125
 20
472.646484375
 10
269.06640625
 20
472.50390625
 10
268.1875
 20
472.255859375
 10
268.400390625
 20
470.18359375
 10
268.400390625
 20
470.18359375
 10
269.583984375
 20
457.8203125
 10
269.583984375
 20
457.8203125
 10
269.583984375
 20
457.8203125
 10
269.64453125
 20
457.8203125
 10
269.64453125
 20
457.8203125
 10
269.64453125
 20
457.8203125
 10
274.13671875
 20
468.82421875
 10
274.13671875
 20
468.82421875
 10
274.13671875
 20
472.291015625
 10
273.5
 20
472.3984375
 10
271.982421875
 20
472.68359375
 10
271.982421875
 20
472.68359375
 10
271.982421875
 20
473.541015625
 10
271.982421875
 20
473.541015625
 10
271.982421875
 20
473.541015625
 10
280.146484375
 20
473.541015625
 10
280.146484375
 20
473.541015625
 10
280.146484375
 20
473.541015625
 10
280.146484375
 20
472.646484375
 10
280.146484375
 20
472.646484375
 10
278.751953125
 20
472.50390625
 10
278.234375
 20
472.291015625
 10
278.234375
 20
470.57421875
 10
278.234375
 20
470.111328125
 10
278.234375
 20
470.111328125
 10
278.416015625
 20
468.25390625
 10
278.416015625
 20
468.25390625
 10
279.41796875
 20
457.8203125
 10
279.41796875
 20
457.8203125
 10
279.41796875
 20
457.8203125
 10
279.48046875
 20
457.8203125
 10
279.48046875
 20
457.8203125
 10
279.48046875
 20
457.8203125
 10
284.154296875
 20
469.396484375
 10
284.154296875
 20
469.396484375
 10
284.607421875
 20
470.50390625
 10
284.607421875
 20
470.611328125
 10
284.607421875
 20
471.21875
 10
284.607421875
 20
472.50390625
 10
283.97265625
 20
472.541015625
 10
282.697265625
 20
472.646484375
 10
282.697265625
 20
472.646484375
 10
282.697265625
 20
473.541015625
 10
282.697265625
 20
473.541015625
 10
282.697265625
 20
473.541015625
 10
288.373046875
 20
473.541015625
 10
288.373046875
 20
473.541015625
 10
288.373046875
 20
473.541015625
 10
288.373046875
 20
472.68359375
 10
288.373046875
 20
472.68359375
 97
        0
 75
     2
 76
     1
 98
        0
  0
SPLINE
  5
42
330
3C
100
AcDbEntity
  8
Layer 1
370
     0
100
AcDbSpline
210
0.0
220
0.0
230
1.0
 70
    11
 71
     3
 72
    17
 73
    13
 74
     0
 42
0.0000000001
 43
0.0000000001
 40
0.0
 40
0.0
 40
0.0
 40
0.0
 40
1.0
 40
1.0
 40
1.0
 40
2.0
 40
2.0
 40
2.0
 40
3.0
 40
3.0
 40
3.0
 40
4.0
 40
4.0
 40
4.0
 40
4.0
 10
287.35546875
 20
453.3125
 30
0.0
 10
287.35546875
 20
450.6328125
 30
0.0
 10
288.380859375
 20
449.72265625
 30
0.0
 10
289.72265625
 20
449.72265625
 30
0.0
 10
293.77734375
 20
449.72265625
 30
0.0
 10
295.916015625
 20
460.279296875
 30
0.0
 10
295.916015625
 20
463.384765625
 30
0.0
 10
295.916015625
 20
463.94921875
 30
0.0
 10
295.890625
 20
466.734375
 30
0.0
 10
293.525390625
 20
466.734375
 30
0.0
 10
289.3359375
 20
466.734375
 30
0.0
 10
287.35546875
 20
455.77734375
 30
0.0
 10
287.35546875
 20
453.3125
 30
0.0
  0
SPLINE
  5
43
330
3C
100
AcDbEntity
  8
Layer 1
370
     0
100
AcDbSpline
210
0.0
220
0.0
230
1.0
 70
    11
 71
     3
 72
    17
 73
    13
 74
     0
 42
0.0000000001
 43
0.0000000001
 40
0.0
 40
0.0
 40
0.0
 40
0.0
 40
1.0
 40
1.0
 40
1.0
 40
2.0
 40
2.0
 40
2.0
 40
3.0
 40
3.0
 40
3.0
 40
4.0
 40
4.0
 40
4.0
 40
4.0
 10
293.685546875
 20
467.646484375
 30
0.0
 10
296.166015625
 20
467.646484375
 30
0.0
 10
299.193359375
 20
465.8515625
 30
0.0
 10
299.193359375
 20
461.189453125
 30
0.0
 10
299.193359375
 20
455.990234375
 30
0.0
 10
295.1640625
 20
448.810546875
 30
0.0
 10
289.49609375
 20
448.810546875
 30
0.0
 10
285.6953125
 20
448.810546875
 30
0.0
 10
284.078125
 20
452.240234375
 30
0.0
 10
284.078125
 20
454.83984375
 30
0.0
 10
284.078125
 20
461.404296875
 30
0.0
 10
288.69921875
 20
467.646484375
 30
0.0
 10
293.685546875
 20
467.646484375
 30
0.0
  0
HATCH
  5
44
330
3C
100
AcDbEntity
  8
Layer 1
 62
   134
420
    43171
100
AcDbHatch
 10
0.0
 20
0.0
 30
0.0
210
0.0
220
0.0
230
1.0
  2
SOLID
 70
     1
 71
     0
 91
        2
 92
        1
 93
        1
 72
     4
 94
        3
 73
     0
 74
     1
 95
       17
 96
       13
 40
0.0
 40
0.0
 40
0.0
 40
0.0
 40
1.0
 40
1.0
 40
1.0
 40
2.0
 40
2.0
 40
2.0
 40
3.0
 40
3.0
 40
3.0
 40
4.0
 40
4.0
 40
4.0
 40
4.0
 10
287.35546875
 20
453.3125
 10
287.35546875
 20
450.6328125
 10
288.380859375
 20
449.72265625
 10
289.72265625
 20
449.72265625
 10
293.77734375
 20
449.72265625
 10
295.916015625
 20
460.279296875
 10
295.916015625
 20
463.384765625
 10
295.916015625
 20
463.94921875
 10
295.890625
 20
466.734375
 10
293.525390625
 20
466.734375
 10
289.3359375
 20
466.734375
 10
287.35546875
 20
455.77734375
 10
287.35546875
 20
453.3125
 97
        0
 92
        1
 93
        1
 72
     4
 94
        3
 73
     0
 74
     1
 95
       17
 96
       13
 40
0.0
 40
0.0
 40
0.0
 40
0.0
 40
1.0
 40
1.0
 40
1.0
 40
2.0
 40
2.0
 40
2.0
 40
3.0
 40
3.0
 40
3.0
 40
4.0
 40
4.0
 40
4.0
 40
4.0
 10
293.685546875
 20
467.646484375
 10
296.166015625
 20
467.646484375
 10
299.193359375
 20
465.8515625
 10
299.193359375
 20
461.189453125
 10
299.193359375
 20
455.990234375
 10
295.1640625
 20
448.810546875
 10
289.49609375
 20
448.810546875
 10
285.6953125
 20
448.810546875
 10
284.078125
 20
452.240234375
 10
284.078125
 20
454.83984375
 10
284.078125
 20
461.404296875
 10
288.69921875
 20
467.646484375
 10
293.685546875
 20
467.646484375
 97
        0
 75
     2
 76
     1
 98
        0
  0
SPLINE
  5
45
330
3C
100
AcDbEntity
  8
Layer 1
370
     0
100
AcDbSpline
210
0.0
220
0.0
230
1.0
 70
    11
 71
     3
 72
    17
 73
    13
 74
     0
 42
0.0000000001
 43
0.0000000001
 40
0.0
 40
0.0
 40
0.0
 40
0.0
 40
1.0
 40
1.0
 40
1.0
 40
2.0
 40
2.0
 40
2.0
 40
3.0
 40
3.0
 40
3.0
 40
4.0
 40
4.0
 40
4.0
 40
4.0
 10
302.673828125
 20
453.3125
 30
0.0
 10
302.673828125
 20
450.6328125
 30
0.0
 10
303.69921875
 20
449.72265625
 30
0.0
 10
305.0419921875
 20
449.72265625
 30
0.0
 10
309.095703125
 20
449.72265625
 30
0.0
 10
311.2353515625
 20
460.279296875
 30
0.0
 10
311.2353515625
 20
463.384765625
 30
0.0
 10
311.2353515625
 20
463.94921875
 30
0.0
 10
311.2109375
 20
466.734375
 30
0.0
 10
308.8447265625
 20
466.734375
 30
0.0
 10
304.654296875
 20
466.734375
 30
0.0
 10
302.673828125
 20
455.77734375
 30
0.0
 10
302.673828125
 20
453.3125
 30
0.0
  0
SPLINE
  5
46
330
3C
100
AcDbEntity
  8
Layer 1
370
     0
100
AcDbSpline
210
0.0
220
0.0
230
1.0
 70
    11
 71
     3
 72
    17
 73
    13
 74
     0
 42
0.0000000001
 43
0.0000000001
 40
0.0
 40
0.0
 40
0.0
 40
0.0
 40
1.0
 40
1.0
 40
1.0
 40
2.0
 40
2.0
 40
2.0
 40
3.0
 40
3.0
 40
3.0
 40
4.0
 40
4.0
 40
4.0
 40
4.0
 10
309.0029296875
 20
467.646484375
 30
0.0
 10
311.4853515625
 20
467.646484375
 30
0.0
 10
314.51171875
 20
465.8515625
 30
0.0
 10
314.51171875
 20
461.189453125
 30
0.0
 10
314.51171875
 20
455.990234375
 30
0.0
 10
310.4833984375
 20
448.810546875
 30
0.0
 10
304.814453125
 20
448.810546875
 30
0.0
 10
301.013671875
 20
448.810546875
 30
0.0
 10
299.396484375
 20
452.240234375
 30
0.0
 10
299.396484375
 20
454.83984375
 30
0.0
 10
299.396484375
 20
461.404296875
 30
0.0
 10
304.0185546875
 20
467.646484375
 30
0.0
 10
309.0029296875
 20
467.646484375
 30
0.0
  0
HATCH
  5
47
330
3C
100
AcDbEntity
  8
Layer 1
 62
   134
420
    43171
100
AcDbHatch
 10
0.0
 20
0.0
 30
0.0
210
0.0
220
0.0
230
1.0
  2
SOLID
 70
     1
 71
     0
 91
        2
 92
        1
 93
        1
 72
     4
 94
        3
 73
     0
 74
     1
 95
       17
 96
       13
 40
0.0
 40
0.0
 40
0.0
 40
0.0
 40
1.0
 40
1.0
 40
1.0
 40
2.0
 40
2.0
 40
2.0
 40
3.0
 40
3.0
 40
3.0
 40
4.0
 40
4.0
 40
4.0
 40
4.0
 10
302.673828125
 20
453.3125
 10
302.673828125
 20
450.6328125
 10
303.69921875
 20
449.72265625
 10
305.0419921875
 20
449.72265625
 10
309.095703125
 20
449.72265625
 10
311.2353515625
 20
460.279296875
 10
311.2353515625
 20
463.384765625
 10
311.2353515625
 20
463.94921875
 10
311.2109375
 20
466.734375
 10
308.8447265625
 20
466.734375
 10
304.654296875
 20
466.734375
 10
302.673828125
 20
455.77734375
 10
302.673828125
 20
453.3125
 97
        0
 92
        1
 93
        1
 72
     4
 94
        3
 73
     0
 74
     1
 95
       17
 96
       13
 40
0.0
 40
0.0
 40
0.0
 40
0.0
 40
1.0
 40
1.0
 40
1.0
 40
2.0
 40
2.0
 40
2.0
 40
3.0
 40
3.0
 40
3.0
 40
4.0
 40
4.0
 40
4.0
 40
4.0
 10
309.0029296875
 20
467.646484375
 10
311.4853515625
 20
467.646484375
 10
314.51171875
 20
465.8515625
 10
314.51171875
 20
461.189453125
 10
314.51171875
 20
455.990234375
 10
310.4833984375
 20
448.810546875
 10
304.814453125
 20
448.810546875
 10
301.013671875
 20
448.810546875
 10
299.396484375
 20
452.240234375
 10
299.396484375
 20
454.83984375
 10
299.396484375
 20
461.404296875
 10
304.0185546875
 20
467.646484375
 10
309.0029296875
 20
467.646484375
 97
        0
 75
     2
 76
     1
 98
        0
  0
SPLINE
  5
48
330
3C
100
AcDbEntity
  8
Layer 1
370
     0
100
AcDbSpline
210
0.0
220
0.0
230
1.0
 70
    11
 71
     3
 72
    62
 73
    58
 74
     0
 42
0.0000000001
 43
0.0000000001
 40
0.0
 40
0.0
 40
0.0
 40
0.0
 40
1.0
 40
1.0
 40
1.0
 40
2.0
 40
2.0
 40
2.0
 40
3.0
 40
3.0
 40
3.0
 40
4.0
 40
4.0
 40
4.0
 40
5.0
 40
5.0
 40
5.0
 40
6.0
 40
6.0
 40
6.0
 40
7.0
 40
7.0
 40
7.0
 40
8.0
 40
8.0
 40
8.0
 40
9.0
 40
9.0
 40
9.0
 40
10.0
 40
10.0
 40
10.0
 40
11.0
 40
11.0
 40
11.0
 40
12.0
 40
12.0
 40
12.0
 40
13.0
 40
13.0
 40
13.0
 40
14.0
 40
14.0
 40
14.0
 40
15.0
 40
15.0
 40
15.0
 40
16.0
 40
16.0
 40
16.0
 40
17.0
 40
17.0
 40
17.0
 40
18.0
 40
18.0
 40
18.0
 40
19.0
 40
19.0
 40
19.0
 40
19.0
 10
314.486328125
 20
454.8125
 30
0.0
 10
314.486328125
 20
454.8125
 30
0.0
 10
315.146484375
 20
454.759765625
 30
0.0
 10
315.146484375
 20
454.759765625
 30
0.0
 10
315.283203125
 20
450.15234375
 30
0.0
 10
317.71875
 20
449.72265625
 30
0.0
 10
318.673828125
 20
449.72265625
 30
0.0
 10
321.224609375
 20
449.72265625
 30
0.0
 10
321.51953125
 20
452.5625
 30
0.0
 10
321.51953125
 20
453.09765625
 30
0.0
 10
321.51953125
 20
456.58203125
 30
0.0
 10
315.943359375
 20
458.0546875
 30
0.0
 10
315.943359375
 20
462.3671875
 30
0.0
 10
315.943359375
 20
465.07421875
 30
0.0
 10
317.55859375
 20
467.646484375
 30
0.0
 10
320.609375
 20
467.646484375
 30
0.0
 10
321.908203125
 20
467.646484375
 30
0.0
 10
323.228515625
 20
466.84375
 30
0.0
 10
323.91015625
 20
466.84375
 30
0.0
 10
324.001953125
 20
466.84375
 30
0.0
 10
324.638671875
 20
466.84375
 30
0.0
 10
324.912109375
 20
467.537109375
 30
0.0
 10
324.912109375
 20
467.537109375
 30
0.0
 10
325.595703125
 20
467.537109375
 30
0.0
 10
325.595703125
 20
467.537109375
 30
0.0
 10
325.595703125
 20
467.537109375
 30
0.0
 10
324.685546875
 20
462.154296875
 30
0.0
 10
324.685546875
 20
462.154296875
 30
0.0
 10
324.685546875
 20
462.154296875
 30
0.0
 10
324.0703125
 20
462.259765625
 30
0.0
 10
324.0703125
 20
462.259765625
 30
0.0
 10
323.935546875
 20
463.76171875
 30
0.0
 10
323.638671875
 20
466.70703125
 30
0.0
 10
321.04296875
 20
466.70703125
 30
0.0
 10
318.720703125
 20
466.70703125
 30
0.0
 10
318.69921875
 20
464.13671875
 30
0.0
 10
318.69921875
 20
463.83984375
 30
0.0
 10
318.69921875
 20
461.779296875
 30
0.0
 10
320.154296875
 20
461.4296875
 30
0.0
 10
322.25
 20
459.072265625
 30
0.0
 10
323.275390625
 20
457.89453125
 30
0.0
 10
324.275390625
 20
456.365234375
 30
0.0
 10
324.275390625
 20
454.490234375
 30
0.0
 10
324.275390625
 20
450.955078125
 30
0.0
 10
322.453125
 20
448.810546875
 30
0.0
 10
318.92578125
 20
448.810546875
 30
0.0
 10
317.21875
 20
448.810546875
 30
0.0
 10
315.8984375
 20
449.748046875
 30
0.0
 10
315.259765625
 20
449.748046875
 30
0.0
 10
314.69140625
 20
449.748046875
 30
0.0
 10
314.578125
 20
449.42578125
 30
0.0
 10
314.349609375
 20
448.810546875
 30
0.0
 10
314.349609375
 20
448.810546875
 30
0.0
 10
313.666015625
 20
448.810546875
 30
0.0
 10
313.666015625
 20
448.810546875
 30
0.0
 10
313.666015625
 20
448.810546875
 30
0.0
 10
314.486328125
 20
454.8125
 30
0.0
 10
314.486328125
 20
454.8125
 30
0.0
  0
HATCH
  5
49
330
3C
100
AcDbEntity
  8
Layer 1
 62
   134
420
    43171
100
AcDbHatch
 10
0.0
 20
0.0
 30
0.0
210
0.0
220
0.0
230
1.0
  2
SOLID
 70
     1
 71
     0
 91
        1
 92
        1
 93
        1
 72
     4
 94
        3
 73
     0
 74
     1
 95
       62
 96
       58
 40
0.0
 40
0.0
 40
0.0
 40
0.0
 40
1.0
 40
1.0
 40
1.0
 40
2.0
 40
2.0
 40
2.0
 40
3.0
 40
3.0
 40
3.0
 40
4.0
 40
4.0
 40
4.0
 40
5.0
 40
5.0
 40
5.0
 40
6.0
 40
6.0
 40
6.0
 40
7.0
 40
7.0
 40
7.0
 40
8.0
 40
8.0
 40
8.0
 40
9.0
 40
9.0
 40
9.0
 40
10.0
 40
10.0
 40
10.0
 40
11.0
 40
11.0
 40
11.0
 40
12.0
 40
12.0
 40
12.0
 40
13.0
 40
13.0
 40
13.0
 40
14.0
 40
14.0
 40
14.0
 40
15.0
 40
15.0
 40
15.0
 40
16.0
 40
16.0
 40
16.0
 40
17.0
 40
17.0
 40
17.0
 40
18.0
 40
18.0
 40
18.0
 40
19.0
 40
19.0
 40
19.0
 40
19.0
 10
314.486328125
 20
454.8125
 10
314.486328125
 20
454.8125
 10
315.146484375
 20
454.759765625
 10
315.146484375
 20
454.759765625
 10
315.283203125
 20
450.15234375
 10
317.71875
 20
449.72265625
 10
318.673828125
 20
449.72265625
 10
321.224609375
 20
449.72265625
 10
321.51953125
 20
452.5625
 10
321.51953125
 20
453.09765625
 10
321.51953125
 20
456.58203125
 10
315.943359375
 20
458.0546875
 10
315.943359375
 20
462.3671875
 10
315.943359375
 20
465.07421875
 10
317.55859375
 20
467.646484375
 10
320.609375
 20
467.646484375
 10
321.908203125
 20
467.646484375
 10
323.228515625
 20
466.84375
 10
323.91015625
 20
466.84375
 10
324.001953125
 20
466.84375
 10
324.638671875
 20
466.84375
 10
324.912109375
 20
467.537109375
 10
324.912109375
 20
467.537109375
 10
325.595703125
 20
467.537109375
 10
325.595703125
 20
467.537109375
 10
325.595703125
 20
467.537109375
 10
324.685546875
 20
462.154296875
 10
324.685546875
 20
462.154296875
 10
324.685546875
 20
462.154296875
 10
324.0703125
 20
462.259765625
 10
324.0703125
 20
462.259765625
 10
323.935546875
 20
463.76171875
 10
323.638671875
 20
466.70703125
 10
321.04296875
 20
466.70703125
 10
318.720703125
 20
466.70703125
 10
318.69921875
 20
464.13671875
 10
318.69921875
 20
463.83984375
 10
318.69921875
 20
461.779296875
 10
320.154296875
 20
461.4296875
 10
322.25
 20
459.072265625
 10
323.275390625
 20
457.89453125
 10
324.275390625
 20
456.365234375
 10
324.275390625
 20
454.490234375
 10
324.275390625
 20
450.955078125
 10
322.453125
 20
448.810546875
 10
318.92578125
 20
448.810546875
 10
317.21875
 20
448.810546875
 10
315.8984375
 20
449.748046875
 10
315.259765625
 20
449.748046875
 10
314.69140625
 20
449.748046875
 10
314.578125
 20
449.42578125
 10
314.349609375
 20
448.810546875
 10
314.349609375
 20
448.810546875
 10
313.666015625
 20
448.810546875
 10
313.666015625
 20
448.810546875
 10
313.666015625
 20
448.810546875
 10
314.486328125
 20
454.8125
 10
314.486328125
 20
454.8125
 97
        0
 75
     2
 76
     1
 98
        0
  0
SPLINE
  5
4A
330
3C
100
AcDbEntity
  8
Layer 1
370
     0
100
AcDbSpline
210
0.0
220
0.0
230
1.0
 70
    11
 71
     3
 72
   101
 73
    97
 74
     0
 42
0.0000000001
 43
0.0000000001
 40
0.0
 40
0.0
 40
0.0
 40
0.0
 40
1.0
 40
1.0
 40
1.0
 40
2.0
 40
2.0
 40
2.0
 40
3.0
 40
3.0
 40
3.0
 40
4.0
 40
4.0
 40
4.0
 40
5.0
 40
5.0
 40
5.0
 40
6.0
 40
6.0
 40
6.0
 40
7.0
 40
7.0
 40
7.0
 40
8.0
 40
8.0
 40
8.0
 40
9.0
 40
9.0
 40
9.0
 40
10.0
 40
10.0
 40
10.0
 40
11.0
 40
11.0
 40
11.0
 40
12.0
 40
12.0
 40
12.0
 40
13.0
 40
13.0
 40
13.0
 40
14.0
 40
14.0
 40
14.0
 40
15.0
 40
15.0
 40
15.0
 40
16.0
 40
16.0
 40
16.0
 40
17.0
 40
17.0
 40
17.0
 40
18.0
 40
18.0
 40
18.0
 40
19.0
 40
19.0
 40
19.0
 40
20.0
 40
20.0
 40
20.0
 40
21.0
 40
21.0
 40
21.0
 40
22.0
 40
22.0
 40
22.0
 40
23.0
 40
23.0
 40
23.0
 40
24.0
 40
24.0
 40
24.0
 40
25.0
 40
25.0
 40
25.0
 40
26.0
 40
26.0
 40
26.0
 40
27.0
 40
27.0
 40
27.0
 40
28.0
 40
28.0
 40
28.0
 40
29.0
 40
29.0
 40
29.0
 40
30.0
 40
30.0
 40
30.0
 40
31.0
 40
31.0
 40
31.0
 40
32.0
 40
32.0
 40
32.0
 40
32.0
 10
339.306640625
 20
449.29296875
 30
0.0
 10
339.306640625
 20
449.29296875
 30
0.0
 10
332.08984375
 20
449.29296875
 30
0.0
 10
332.08984375
 20
449.29296875
 30
0.0
 10
332.08984375
 20
449.29296875
 30
0.0
 10
332.08984375
 20
449.962890625
 30
0.0
 10
332.08984375
 20
449.962890625
 30
0.0
 10
333.8203125
 20
450.04296875
 30
0.0
 10
334.1171875
 20
450.712890625
 30
0.0
 10
334.388671875
 20
451.892578125
 30
0.0
 10
334.388671875
 20
451.892578125
 30
0.0
 10
335.84765625
 20
458.107421875
 30
0.0
 10
335.84765625
 20
458.107421875
 30
0.0
 10
335.84765625
 20
458.107421875
 30
0.0
 10
330.40625
 20
458.107421875
 30
0.0
 10
330.40625
 20
458.107421875
 30
0.0
 10
330.40625
 20
458.107421875
 30
0.0
 10
329.265625
 20
453.2578125
 30
0.0
 10
329.265625
 20
453.2578125
 30
0.0
 10
329.10546875
 20
452.5625
 30
0.0
 10
328.880859375
 20
451.78515625
 30
0.0
 10
328.880859375
 20
451.115234375
 30
0.0
 10
328.880859375
 20
450.125
 30
0.0
 10
329.357421875
 20
450.0703125
 30
0.0
 10
330.541015625
 20
449.962890625
 30
0.0
 10
330.541015625
 20
449.962890625
 30
0.0
 10
330.541015625
 20
449.29296875
 30
0.0
 10
330.541015625
 20
449.29296875
 30
0.0
 10
330.541015625
 20
449.29296875
 30
0.0
 10
323.8037109375
 20
449.29296875
 30
0.0
 10
323.8037109375
 20
449.29296875
 30
0.0
 10
323.8037109375
 20
449.29296875
 30
0.0
 10
323.8037109375
 20
449.962890625
 30
0.0
 10
323.8037109375
 20
449.962890625
 30
0.0
 10
324.64453125
 20
450.125
 30
0.0
 10
325.236328125
 20
450.23046875
 30
0.0
 10
325.6240234375
 20
451.892578125
 30
0.0
 10
325.6240234375
 20
451.892578125
 30
0.0
 10
328.400390625
 20
463.921875
 30
0.0
 10
328.400390625
 20
463.921875
 30
0.0
 10
328.46875
 20
464.189453125
 30
0.0
 10
328.650390625
 20
465.07421875
 30
0.0
 10
328.650390625
 20
465.369140625
 30
0.0
 10
328.650390625
 20
466.251953125
 30
0.0
 10
328.400390625
 20
466.306640625
 30
0.0
 10
326.990234375
 20
466.546875
 30
0.0
 10
326.990234375
 20
466.546875
 30
0.0
 10
326.990234375
 20
467.216796875
 30
0.0
 10
326.990234375
 20
467.216796875
 30
0.0
 10
326.990234375
 20
467.216796875
 30
0.0
 10
334.20703125
 20
467.216796875
 30
0.0
 10
334.20703125
 20
467.216796875
 30
0.0
 10
334.20703125
 20
467.216796875
 30
0.0
 10
334.20703125
 20
466.546875
 30
0.0
 10
334.20703125
 20
466.546875
 30
0.0
 10
332.931640625
 20
466.494140625
 30
0.0
 10
332.271484375
 20
466.224609375
 30
0.0
 10
331.90625
 20
464.6171875
 30
0.0
 10
331.90625
 20
464.6171875
 30
0.0
 10
330.677734375
 20
459.287109375
 30
0.0
 10
330.677734375
 20
459.287109375
 30
0.0
 10
330.677734375
 20
459.287109375
 30
0.0
 10
336.119140625
 20
459.287109375
 30
0.0
 10
336.119140625
 20
459.287109375
 30
0.0
 10
336.119140625
 20
459.287109375
 30
0.0
 10
337.189453125
 20
463.921875
 30
0.0
 10
337.189453125
 20
463.921875
 30
0.0
 10
337.189453125
 20
463.921875
 30
0.0
 10
337.41796875
 20
465.07421875
 30
0.0
 10
337.41796875
 20
465.421875
 30
0.0
 10
337.41796875
 20
466.279296875
 30
0.0
 10
337.2109375
 20
466.306640625
 30
0.0
 10
335.75390625
 20
466.546875
 30
0.0
 10
335.75390625
 20
466.546875
 30
0.0
 10
335.75390625
 20
467.216796875
 30
0.0
 10
335.75390625
 20
467.216796875
 30
0.0
 10
335.75390625
 20
467.216796875
 30
0.0
 10
342.541015625
 20
467.216796875
 30
0.0
 10
342.541015625
 20
467.216796875
 30
0.0
 10
342.541015625
 20
467.216796875
 30
0.0
 10
342.541015625
 20
466.546875
 30
0.0
 10
342.541015625
 20
466.546875
 30
0.0
 10
341.626953125
 20
466.38671875
 30
0.0
 10
341.08203125
 20
466.279296875
 30
0.0
 10
340.693359375
 20
464.6171875
 30
0.0
 10
340.693359375
 20
464.6171875
 30
0.0
 10
338.212890625
 20
453.982421875
 30
0.0
 10
338.212890625
 20
453.982421875
 30
0.0
 10
338.052734375
 20
453.2578125
 30
0.0
 10
337.64453125
 20
451.73046875
 30
0.0
 10
337.64453125
 20
451.08984375
 30
0.0
 10
337.64453125
 20
450.09765625
 30
0.0
 10
338.44140625
 20
449.990234375
 30
0.0
 10
339.306640625
 20
449.962890625
 30
0.0
 10
339.306640625
 20
449.962890625
 30
0.0
 10
339.306640625
 20
449.29296875
 30
0.0
 10
339.306640625
 20
449.29296875
 30
0.0
  0
HATCH
  5
4B
330
3C
100
AcDbEntity
  8
Layer 1
 62
   134
420
    43171
100
AcDbHatch
 10
0.0
 20
0.0
 30
0.0
210
0.0
220
0.0
230
1.0
  2
SOLID
 70
     1
 71
     0
 91
        1
 92
        1
 93
        1
 72
     4
 94
        3
 73
     0
 74
     1
 95
      101
 96
       97
 40
0.0
 40
0.0
 40
0.0
 40
0.0
 40
1.0
 40
1.0
 40
1.0
 40
2.0
 40
2.0
 40
2.0
 40
3.0
 40
3.0
 40
3.0
 40
4.0
 40
4.0
 40
4.0
 40
5.0
 40
5.0
 40
5.0
 40
6.0
 40
6.0
 40
6.0
 40
7.0
 40
7.0
 40
7.0
 40
8.0
 40
8.0
 40
8.0
 40
9.0
 40
9.0
 40
9.0
 40
10.0
 40
10.0
 40
10.0
 40
11.0
 40
11.0
 40
11.0
 40
12.0
 40
12.0
 40
12.0
 40
13.0
 40
13.0
 40
13.0
 40
14.0
 40
14.0
 40
14.0
 40
15.0
 40
15.0
 40
15.0
 40
16.0
 40
16.0
 40
16.0
 40
17.0
 40
17.0
 40
17.0
 40
18.0
 40
18.0
 40
18.0
 40
19.0
 40
19.0
 40
19.0
 40
20.0
 40
20.0
 40
20.0
 40
21.0
 40
21.0
 40
21.0
 40
22.0
 40
22.0
 40
22.0
 40
23.0
 40
23.0
 40
23.0
 40
24.0
 40
24.0
 40
24.0
 40
25.0
 40
25.0
 40
25.0
 40
26.0
 40
26.0
 40
26.0
 40
27.0
 40
27.0
 40
27.0
 40
28.0
 40
28.0
 40
28.0
 40
29.0
 40
29.0
 40
29.0
 40
30.0
 40
30.0
 40
30.0
 40
31.0
 40
31.0
 40
31.0
 40
32.0
 40
32.0
 40
32.0
 40
32.0
 10
339.306640625
 20
449.29296875
 10
339.306640625
 20
449.29296875
 10
332.08984375
 20
449.29296875
 10
332.08984375
 20
449.29296875
 10
332.08984375
 20
449.29296875
 10
332.08984375
 20
449.962890625
 10
332.08984375
 20
449.962890625
 10
333.8203125
 20
450.04296875
 10
334.1171875
 20
450.712890625
 10
334.388671875
 20
451.892578125
 10
334.388671875
 20
451.892578125
 10
335.84765625
 20
458.107421875
 10
335.84765625
 20
458.107421875
 10
335.84765625
 20
458.107421875
 10
330.40625
 20
458.107421875
 10
330.40625
 20
458.107421875
 10
330.40625
 20
458.107421875
 10
329.265625
 20
453.2578125
 10
329.265625
 20
453.2578125
 10
329.10546875
 20
452.5625
 10
328.880859375
 20
451.78515625
 10
328.880859375
 20
451.115234375
 10
328.880859375
 20
450.125
 10
329.357421875
 20
450.0703125
 10
330.541015625
 20
449.962890625
 10
330.541015625
 20
449.962890625
 10
330.541015625
 20
449.29296875
 10
330.541015625
 20
449.29296875
 10
330.541015625
 20
449.29296875
 10
323.8037109375
 20
449.29296875
 10
323.8037109375
 20
449.29296875
 10
323.8037109375
 20
449.29296875
 10
323.8037109375
 20
449.962890625
 10
323.8037109375
 20
449.962890625
 10
324.64453125
 20
450.125
 10
325.236328125
 20
450.23046875
 10
325.6240234375
 20
451.892578125
 10
325.6240234375
 20
451.892578125
 10
328.400390625
 20
463.921875
 10
328.400390625
 20
463.921875
 10
328.46875
 20
464.189453125
 10
328.650390625
 20
465.07421875
 10
328.650390625
 20
465.369140625
 10
328.650390625
 20
466.251953125
 10
328.400390625
 20
466.306640625
 10
326.990234375
 20
466.546875
 10
326.990234375
 20
466.546875
 10
326.990234375
 20
467.216796875
 10
326.990234375
 20
467.216796875
 10
326.990234375
 20
467.216796875
 10
334.20703125
 20
467.216796875
 10
334.20703125
 20
467.216796875
 10
334.20703125
 20
467.216796875
 10
334.20703125
 20
466.546875
 10
334.20703125
 20
466.546875
 10
332.931640625
 20
466.494140625
 10
332.271484375
 20
466.224609375
 10
331.90625
 20
464.6171875
 10
331.90625
 20
464.6171875
 10
330.677734375
 20
459.287109375
 10
330.677734375
 20
459.287109375
 10
330.677734375
 20
459.287109375
 10
336.119140625
 20
459.287109375
 10
336.119140625
 20
459.287109375
 10
336.119140625
 20
459.287109375
 10
337.189453125
 20
463.921875
 10
337.189453125
 20
463.921875
 10
337.189453125
 20
463.921875
 10
337.41796875
 20
465.07421875
 10
337.41796875
 20
465.421875
 10
337.41796875
 20
466.279296875
 10
337.2109375
 20
466.306640625
 10
335.75390625
 20
466.546875
 10
335.75390625
 20
466.546875
 10
335.75390625
 20
467.216796875
 10
335.75390625
 20
467.216796875
 10
335.75390625
 20
467.216796875
 10
342.541015625
 20
467.216796875
 10
342.541015625
 20
467.216796875
 10
342.541015625
 20
467.216796875
 10
342.541015625
 20
466.546875
 10
342.541015625
 20
466.546875
 10
341.626953125
 20
466.38671875
 10
341.08203125
 20
466.279296875
 10
340.693359375
 20
464.6171875
 10
340.693359375
 20
464.6171875
 10
338.212890625
 20
453.982421875
 10
338.212890625
 20
453.982421875
 10
338.052734375
 20
453.2578125
 10
337.64453125
 20
451.73046875
 10
337.64453125
 20
451.08984375
 10
337.64453125
 20
450.09765625
 10
338.44140625
 20
449.990234375
 10
339.306640625
 20
449.962890625
 10
339.306640625
 20
449.962890625
 10
339.306640625
 20
449.29296875
 10
339.306640625
 20
449.29296875
 97
        0
 75
     2
 76
     1
 98
        0
  0
SPLINE
  5
4C
330
3C
100
AcDbEntity
  8
Layer 1
370
     0
100
AcDbSpline
210
0.0
220
0.0
230
1.0
 70
    11
 71
     3
 72
    47
 73
    43
 74
     0
 42
0.0000000001
 43
0.0000000001
 40
0.0
 40
0.0
 40
0.0
 40
0.0
 40
1.0
 40
1.0
 40
1.0
 40
2.0
 40
2.0
 40
2.0
 40
3.0
 40
3.0
 40
3.0
 40
4.0
 40
4.0
 40
4.0
 40
5.0
 40
5.0
 40
5.0
 40
6.0
 40
6.0
 40
6.0
 40
7.0
 40
7.0
 40
7.0
 40
8.0
 40
8.0
 40
8.0
 40
9.0
 40
9.0
 40
9.0
 40
10.0
 40
10.0
 40
10.0
 40
11.0
 40
11.0
 40
11.0
 40
12.0
 40
12.0
 40
12.0
 40
13.0
 40
13.0
 40
13.0
 40
14.0
 40
14.0
 40
14.0
 40
14.0
 10
359.740234375
 20
465.751953125
 30
0.0
 10
359.740234375
 20
465.751953125
 30
0.0
 10
358.767578125
 20
465.966796875
 30
0.0
 10
358.767578125
 20
465.966796875
 30
0.0
 10
358.828125
 20
466.359375
 30
0.0
 10
358.859375
 20
466.7890625
 30
0.0
 10
358.859375
 20
467.181640625
 30
0.0
 10
358.859375
 20
470.6484375
 30
0.0
 10
357.462890625
 20
472.86328125
 30
0.0
 10
354.822265625
 20
472.86328125
 30
0.0
 10
349.935546875
 20
472.86328125
 30
0.0
 10
346.3828125
 20
463.609375
 30
0.0
 10
346.3828125
 20
457.28515625
 30
0.0
 10
346.3828125
 20
450.888671875
 30
0.0
 10
350.330078125
 20
450.888671875
 30
0.0
 10
350.75390625
 20
450.888671875
 30
0.0
 10
353.15234375
 20
450.888671875
 30
0.0
 10
355.09375
 20
451.81640625
 30
0.0
 10
357.310546875
 20
455.10546875
 30
0.0
 10
357.310546875
 20
455.10546875
 30
0.0
 10
358.220703125
 20
454.318359375
 30
0.0
 10
358.220703125
 20
454.318359375
 30
0.0
 10
356.673828125
 20
451.568359375
 30
0.0
 10
353.91015625
 20
448.99609375
 30
0.0
 10
349.96484375
 20
448.99609375
 30
0.0
 10
346.01953125
 20
448.99609375
 30
0.0
 10
341.708984375
 20
451.74609375
 30
0.0
 10
341.708984375
 20
458.21484375
 30
0.0
 10
341.708984375
 20
466.14453125
 30
0.0
 10
346.748046875
 20
474.11328125
 30
0.0
 10
354.123046875
 20
474.11328125
 30
0.0
 10
356.734375
 20
474.11328125
 30
0.0
 10
358.43359375
 20
473.076171875
 30
0.0
 10
359.162109375
 20
473.076171875
 30
0.0
 10
359.830078125
 20
473.076171875
 30
0.0
 10
360.072265625
 20
473.541015625
 30
0.0
 10
360.375
 20
474.11328125
 30
0.0
 10
360.375
 20
474.11328125
 30
0.0
 10
361.287109375
 20
474.11328125
 30
0.0
 10
361.287109375
 20
474.11328125
 30
0.0
 10
361.287109375
 20
474.11328125
 30
0.0
 10
359.740234375
 20
465.751953125
 30
0.0
 10
359.740234375
 20
465.751953125
 30
0.0
  0
HATCH
  5
4D
330
3C
100
AcDbEntity
  8
Layer 1
 62
   134
420
    43171
100
AcDbHatch
 10
0.0
 20
0.0
 30
0.0
210
0.0
220
0.0
230
1.0
  2
SOLID
 70
     1
 71
     0
 91
        1
 92
        1
 93
        1
 72
     4
 94
        3
 73
     0
 74
     1
 95
       47
 96
       43
 40
0.0
 40
0.0
 40
0.0
 40
0.0
 40
1.0
 40
1.0
 40
1.0
 40
2.0
 40
2.0
 40
2.0
 40
3.0
 40
3.0
 40
3.0
 40
4.0
 40
4.0
 40
4.0
 40
5.0
 40
5.0
 40
5.0
 40
6.0
 40
6.0
 40
6.0
 40
7.0
 40
7.0
 40
7.0
 40
8.0
 40
8.0
 40
8.0
 40
9.0
 40
9.0
 40
9.0
 40
10.0
 40
10.0
 40
10.0
 40
11.0
 40
11.0
 40
11.0
 40
12.0
 40
12.0
 40
12.0
 40
13.0
 40
13.0
 40
13.0
 40
14.0
 40
14.0
 40
14.0
 40
14.0
 10
359.740234375
 20
465.751953125
 10
359.740234375
 20
465.751953125
 10
358.767578125
 20
465.966796875
 10
358.767578125
 20
465.966796875
 10
358.828125
 20
466.359375
 10
358.859375
 20
466.7890625
 10
358.859375
 20
467.181640625
 10
358.859375
 20
470.6484375
 10
357.462890625
 20
472.86328125
 10
354.822265625
 20
472.86328125
 10
349.935546875
 20
472.86328125
 10
346.3828125
 20
463.609375
 10
346.3828125
 20
457.28515625
 10
346.3828125
 20
450.888671875
 10
350.330078125
 20
450.888671875
 10
350.75390625
 20
450.888671875
 10
353.15234375
 20
450.888671875
 10
355.09375
 20
451.81640625
 10
357.310546875
 20
455.10546875
 10
357.310546875
 20
455.10546875
 10
358.220703125
 20
454.318359375
 10
358.220703125
 20
454.318359375
 10
356.673828125
 20
451.568359375
 10
353.91015625
 20
448.99609375
 10
349.96484375
 20
448.99609375
 10
346.01953125
 20
448.99609375
 10
341.708984375
 20
451.74609375
 10
341.708984375
 20
458.21484375
 10
341.708984375
 20
466.14453125
 10
346.748046875
 20
474.11328125
 10
354.123046875
 20
474.11328125
 10
356.734375
 20
474.11328125
 10
358.43359375
 20
473.076171875
 10
359.162109375
 20
473.076171875
 10
359.830078125
 20
473.076171875
 10
360.072265625
 20
473.541015625
 10
360.375
 20
474.11328125
 10
360.375
 20
474.11328125
 10
361.287109375
 20
474.11328125
 10
361.287109375
 20
474.11328125
 10
361.287109375
 20
474.11328125
 10
359.740234375
 20
465.751953125
 10
359.740234375
 20
465.751953125
 97
        0
 75
     2
 76
     1
 98
        0
  0
SPLINE
  5
4E
330
3C
100
AcDbEntity
  8
Layer 1
370
     0
100
AcDbSpline
210
0.0
220
0.0
230
1.0
 70
    11
 71
     3
 72
    17
 73
    13
 74
     0
 42
0.0000000001
 43
0.0000000001
 40
0.0
 40
0.0
 40
0.0
 40
0.0
 40
1.0
 40
1.0
 40
1.0
 40
2.0
 40
2.0
 40
2.0
 40
3.0
 40
3.0
 40
3.0
 40
4.0
 40
4.0
 40
4.0
 40
4.0
 10
362.7294921875
 20
453.4765625
 30
0.0
 10
362.7294921875
 20
450.798828125
 30
0.0
 10
363.7529296875
 20
449.88671875
 30
0.0
 10
365.0966796875
 20
449.88671875
 30
0.0
 10
369.1474609375
 20
449.88671875
 30
0.0
 10
371.2880859375
 20
460.443359375
 30
0.0
 10
371.2880859375
 20
463.55078125
 30
0.0
 10
371.2880859375
 20
464.11328125
 30
0.0
 10
371.2666015625
 20
466.8984375
 30
0.0
 10
368.8974609375
 20
466.8984375
 30
0.0
 10
364.7099609375
 20
466.8984375
 30
0.0
 10
362.7294921875
 20
455.943359375
 30
0.0
 10
362.7294921875
 20
453.4765625
 30
0.0
  0
SPLINE
  5
4F
330
3C
100
AcDbEntity
  8
Layer 1
370
     0
100
AcDbSpline
210
0.0
220
0.0
230
1.0
 70
    11
 71
     3
 72
    17
 73
    13
 74
     0
 42
0.0000000001
 43
0.0000000001
 40
0.0
 40
0.0
 40
0.0
 40
0.0
 40
1.0
 40
1.0
 40
1.0
 40
2.0
 40
2.0
 40
2.0
 40
3.0
 40
3.0
 40
3.0
 40
4.0
 40
4.0
 40
4.0
 40
4.0
 10
369.0576171875
 20
467.810546875
 30
0.0
 10
371.5380859375
 20
467.810546875
 30
0.0
 10
374.5673828125
 20
466.015625
 30
0.0
 10
374.5673828125
 20
461.353515625
 30
0.0
 10
374.5673828125
 20
456.154296875
 30
0.0
 10
370.5380859375
 20
448.9765625
 30
0.0
 10
364.8681640625
 20
448.9765625
 30
0.0
 10
361.0654296875
 20
448.9765625
 30
0.0
 10
359.4501953125
 20
452.40625
 30
0.0
 10
359.4501953125
 20
455.00390625
 30
0.0
 10
359.4501953125
 20
461.568359375
 30
0.0
 10
364.0712890625
 20
467.810546875
 30
0.0
 10
369.0576171875
 20
467.810546875
 30
0.0
  0
HATCH
  5
50
330
3C
100
AcDbEntity
  8
Layer 1
 62
   134
420
    43171
100
AcDbHatch
 10
0.0
 20
0.0
 30
0.0
210
0.0
220
0.0
230
1.0
  2
SOLID
 70
     1
 71
     0
 91
        2
 92
        1
 93
        1
 72
     4
 94
        3
 73
     0
 74
     1
 95
       17
 96
       13
 40
0.0
 40
0.0
 40
0.0
 40
0.0
 40
1.0
 40
1.0
 40
1.0
 40
2.0
 40
2.0
 40
2.0
 40
3.0
 40
3.0
 40
3.0
 40
4.0
 40
4.0
 40
4.0
 40
4.0
 10
362.7294921875
 20
453.4765625
 10
362.7294921875
 20
450.798828125
 10
363.7529296875
 20
449.88671875
 10
365.0966796875
 20
449.88671875
 10
369.1474609375
 20
449.88671875
 10
371.2880859375
 20
460.443359375
 10
371.2880859375
 20
463.55078125
 10
371.2880859375
 20
464.11328125
 10
371.2666015625
 20
466.8984375
 10
368.8974609375
 20
466.8984375
 10
364.7099609375
 20
466.8984375
 10
362.7294921875
 20
455.943359375
 10
362.7294921875
 20
453.4765625
 97
        0
 92
        1
 93
        1
 72
     4
 94
        3
 73
     0
 74
     1
 95
       17
 96
       13
 40
0.0
 40
0.0
 40
0.0
 40
0.0
 40
1.0
 40
1.0
 40
1.0
 40
2.0
 40
2.0
 40
2.0
 40
3.0
 40
3.0
 40
3.0
 40
4.0
 40
4.0
 40
4.0
 40
4.0
 10
369.0576171875
 20
467.810546875
 10
371.5380859375
 20
467.810546875
 10
374.5673828125
 20
466.015625
 10
374.5673828125
 20
461.353515625
 10
374.5673828125
 20
456.154296875
 10
370.5380859375
 20
448.9765625
 10
364.8681640625
 20
448.9765625
 10
361.0654296875
 20
448.9765625
 10
359.4501953125
 20
452.40625
 10
359.4501953125
 20
455.00390625
 10
359.4501953125
 20
461.568359375
 10
364.0712890625
 20
467.810546875
 10
369.0576171875
 20
467.810546875
 97
        0
 75
     2
 76
     1
 98
        0
  0
SPLINE
  5
51
330
3C
100
AcDbEntity
  8
Layer 1
370
     0
100
AcDbSpline
210
0.0
220
0.0
230
1.0
 70
    11
 71
     3
 72
    98
 73
    94
 74
     0
 42
0.0000000001
 43
0.0000000001
 40
0.0
 40
0.0
 40
0.0
 40
0.0
 40
1.0
 40
1.0
 40
1.0
 40
2.0
 40
2.0
 40
2.0
 40
3.0
 40
3.0
 40
3.0
 40
4.0
 40
4.0
 40
4.0
 40
5.0
 40
5.0
 40
5.0
 40
6.0
 40
6.0
 40
6.0
 40
7.0
 40
7.0
 40
7.0
 40
8.0
 40
8.0
 40
8.0
 40
9.0
 40
9.0
 40
9.0
 40
10.0
 40
10.0
 40
10.0
 40
11.0
 40
11.0
 40
11.0
 40
12.0
 40
12.0
 40
12.0
 40
13.0
 40
13.0
 40
13.0
 40
14.0
 40
14.0
 40
14.0
 40
15.0
 40
15.0
 40
15.0
 40
16.0
 40
16.0
 40
16.0
 40
17.0
 40
17.0
 40
17.0
 40
18.0
 40
18.0
 40
18.0
 40
19.0
 40
19.0
 40
19.0
 40
20.0
 40
20.0
 40
20.0
 40
21.0
 40
21.0
 40
21.0
 40
22.0
 40
22.0
 40
22.0
 40
23.0
 40
23.0
 40
23.0
 40
24.0
 40
24.0
 40
24.0
 40
25.0
 40
25.0
 40
25.0
 40
26.0
 40
26.0
 40
26.0
 40
27.0
 40
27.0
 40
27.0
 40
28.0
 40
28.0
 40
28.0
 40
29.0
 40
29.0
 40
29.0
 40
30.0
 40
30.0
 40
30.0
 40
31.0
 40
31.0
 40
31.0
 40
31.0
 10
390.0947265625
 20
452.244140625
 30
0.0
 10
390.0048828125
 20
451.7890625
 30
0.0
 10
389.8701171875
 20
451.251953125
 30
0.0
 10
389.8701171875
 20
450.76953125
 30
0.0
 10
389.8701171875
 20
449.859375
 30
0.0
 10
390.3466796875
 20
449.671875
 30
0.0
 10
391.5068359375
 20
449.6171875
 30
0.0
 10
391.5068359375
 20
449.6171875
 30
0.0
 10
391.5068359375
 20
448.94921875
 30
0.0
 10
391.5068359375
 20
448.94921875
 30
0.0
 10
391.5068359375
 20
448.94921875
 30
0.0
 10
384.4033203125
 20
448.94921875
 30
0.0
 10
384.4033203125
 20
448.94921875
 30
0.0
 10
384.4033203125
 20
448.94921875
 30
0.0
 10
384.4033203125
 20
449.6171875
 30
0.0
 10
384.4033203125
 20
449.6171875
 30
0.0
 10
385.6787109375
 20
449.724609375
 30
0.0
 10
386.3173828125
 20
449.96484375
 30
0.0
 10
386.6806640625
 20
451.546875
 30
0.0
 10
386.6806640625
 20
451.546875
 30
0.0
 10
389.4814453125
 20
463.73828125
 30
0.0
 10
389.4814453125
 20
463.73828125
 30
0.0
 10
389.4814453125
 20
463.73828125
 30
0.0
 10
389.4345703125
 20
463.791015625
 30
0.0
 10
389.4345703125
 20
463.791015625
 30
0.0
 10
389.4345703125
 20
463.791015625
 30
0.0
 10
380.9892578125
 20
448.626953125
 30
0.0
 10
380.9892578125
 20
448.626953125
 30
0.0
 10
380.9892578125
 20
448.626953125
 30
0.0
 10
380.3525390625
 20
448.626953125
 30
0.0
 10
380.3525390625
 20
448.626953125
 30
0.0
 10
380.3525390625
 20
448.626953125
 30
0.0
 10
378.8505859375
 20
463.46875
 30
0.0
 10
378.8505859375
 20
463.46875
 30
0.0
 10
378.8505859375
 20
463.46875
 30
0.0
 10
378.8037109375
 20
463.46875
 30
0.0
 10
378.8037109375
 20
463.46875
 30
0.0
 10
378.8037109375
 20
463.46875
 30
0.0
 10
376.5263671875
 20
453.716796875
 30
0.0
 10
376.5263671875
 20
453.716796875
 30
0.0
 10
376.4150390625
 20
453.234375
 30
0.0
 10
376.0966796875
 20
451.89453125
 30
0.0
 10
376.0966796875
 20
451.306640625
 30
0.0
 10
376.0966796875
 20
449.88671875
 30
0.0
 10
376.8232421875
 20
449.779296875
 30
0.0
 10
377.9169921875
 20
449.6171875
 30
0.0
 10
377.9169921875
 20
449.6171875
 30
0.0
 10
377.9169921875
 20
448.94921875
 30
0.0
 10
377.9169921875
 20
448.94921875
 30
0.0
 10
377.9169921875
 20
448.94921875
 30
0.0
 10
373.2041015625
 20
448.94921875
 30
0.0
 10
373.2041015625
 20
448.94921875
 30
0.0
 10
373.2041015625
 20
448.94921875
 30
0.0
 10
373.2041015625
 20
449.6171875
 30
0.0
 10
373.2041015625
 20
449.6171875
 30
0.0
 10
374.3212890625
 20
449.939453125
 30
0.0
 10
374.5927734375
 20
450.01953125
 30
0.0
 10
375.5029296875
 20
453.716796875
 30
0.0
 10
375.5029296875
 20
453.716796875
 30
0.0
 10
377.9853515625
 20
463.7109375
 30
0.0
 10
377.9853515625
 20
463.7109375
 30
0.0
 10
378.2353515625
 20
464.67578125
 30
0.0
 10
378.2353515625
 20
465.158203125
 30
0.0
 10
378.2353515625
 20
465.265625
 30
0.0
 10
378.2353515625
 20
466.095703125
 30
0.0
 10
377.8017578125
 20
466.1484375
 30
0.0
 10
376.5966796875
 20
466.203125
 30
0.0
 10
376.5966796875
 20
466.203125
 30
0.0
 10
376.5966796875
 20
466.873046875
 30
0.0
 10
376.5966796875
 20
466.873046875
 30
0.0
 10
376.5966796875
 20
466.873046875
 30
0.0
 10
381.6279296875
 20
466.873046875
 30
0.0
 10
381.6279296875
 20
466.873046875
 30
0.0
 10
381.6279296875
 20
466.873046875
 30
0.0
 10
382.8583984375
 20
454.091796875
 30
0.0
 10
382.8583984375
 20
454.091796875
 30
0.0
 10
382.8583984375
 20
454.091796875
 30
0.0
 10
382.9013671875
 20
454.091796875
 30
0.0
 10
382.9013671875
 20
454.091796875
 30
0.0
 10
382.9013671875
 20
454.091796875
 30
0.0
 10
389.9130859375
 20
466.873046875
 30
0.0
 10
389.9130859375
 20
466.873046875
 30
0.0
 10
389.9130859375
 20
466.873046875
 30
0.0
 10
394.7392578125
 20
466.873046875
 30
0.0
 10
394.7392578125
 20
466.873046875
 30
0.0
 10
394.7392578125
 20
466.873046875
 30
0.0
 10
394.7392578125
 20
466.203125
 30
0.0
 10
394.7392578125
 20
466.203125
 30
0.0
 10
393.8310546875
 20
466.04296875
 30
0.0
 10
393.2822265625
 20
465.93359375
 30
0.0
 10
392.8955078125
 20
464.2734375
 30
0.0
 10
392.8955078125
 20
464.2734375
 30
0.0
 10
390.0947265625
 20
452.244140625
 30
0.0
 10
390.0947265625
 20
452.244140625
 30
0.0
  0
HATCH
  5
52
330
3C
100
AcDbEntity
  8
Layer 1
 62
   134
420
    43171
100
AcDbHatch
 10
0.0
 20
0.0
 30
0.0
210
0.0
220
0.0
230
1.0
  2
SOLID
 70
     1
 71
     0
 91
        1
 92
        1
 93
        1
 72
     4
 94
        3
 73
     0
 74
     1
 95
       98
 96
       94
 40
0.0
 40
0.0
 40
0.0
 40
0.0
 40
1.0
 40
1.0
 40
1.0
 40
2.0
 40
2.0
 40
2.0
 40
3.0
 40
3.0
 40
3.0
 40
4.0
 40
4.0
 40
4.0
 40
5.0
 40
5.0
 40
5.0
 40
6.0
 40
6.0
 40
6.0
 40
7.0
 40
7.0
 40
7.0
 40
8.0
 40
8.0
 40
8.0
 40
9.0
 40
9.0
 40
9.0
 40
10.0
 40
10.0
 40
10.0
 40
11.0
 40
11.0
 40
11.0
 40
12.0
 40
12.0
 40
12.0
 40
13.0
 40
13.0
 40
13.0
 40
14.0
 40
14.0
 40
14.0
 40
15.0
 40
15.0
 40
15.0
 40
16.0
 40
16.0
 40
16.0
 40
17.0
 40
17.0
 40
17.0
 40
18.0
 40
18.0
 40
18.0
 40
19.0
 40
19.0
 40
19.0
 40
20.0
 40
20.0
 40
20.0
 40
21.0
 40
21.0
 40
21.0
 40
22.0
 40
22.0
 40
22.0
 40
23.0
 40
23.0
 40
23.0
 40
24.0
 40
24.0
 40
24.0
 40
25.0
 40
25.0
 40
25.0
 40
26.0
 40
26.0
 40
26.0
 40
27.0
 40
27.0
 40
27.0
 40
28.0
 40
28.0
 40
28.0
 40
29.0
 40
29.0
 40
29.0
 40
30.0
 40
30.0
 40
30.0
 40
31.0
 40
31.0
 40
31.0
 40
31.0
 10
390.0947265625
 20
452.244140625
 10
390.0048828125
 20
451.7890625
 10
389.8701171875
 20
451.251953125
 10
389.8701171875
 20
450.76953125
 10
389.8701171875
 20
449.859375
 10
390.3466796875
 20
449.671875
 10
391.5068359375
 20
449.6171875
 10
391.5068359375
 20
449.6171875
 10
391.5068359375
 20
448.94921875
 10
391.5068359375
 20
448.94921875
 10
391.5068359375
 20
448.94921875
 10
384.4033203125
 20
448.94921875
 10
384.4033203125
 20
448.94921875
 10
384.4033203125
 20
448.94921875
 10
384.4033203125
 20
449.6171875
 10
384.4033203125
 20
449.6171875
 10
385.6787109375
 20
449.724609375
 10
386.3173828125
 20
449.96484375
 10
386.6806640625
 20
451.546875
 10
386.6806640625
 20
451.546875
 10
389.4814453125
 20
463.73828125
 10
389.4814453125
 20
463.73828125
 10
389.4814453125
 20
463.73828125
 10
389.4345703125
 20
463.791015625
 10
389.4345703125
 20
463.791015625
 10
389.4345703125
 20
463.791015625
 10
380.9892578125
 20
448.626953125
 10
380.9892578125
 20
448.626953125
 10
380.9892578125
 20
448.626953125
 10
380.3525390625
 20
448.626953125
 10
380.3525390625
 20
448.626953125
 10
380.3525390625
 20
448.626953125
 10
378.8505859375
 20
463.46875
 10
378.8505859375
 20
463.46875
 10
378.8505859375
 20
463.46875
 10
378.8037109375
 20
463.46875
 10
378.8037109375
 20
463.46875
 10
378.8037109375
 20
463.46875
 10
376.5263671875
 20
453.716796875
 10
376.5263671875
 20
453.716796875
 10
376.4150390625
 20
453.234375
 10
376.0966796875
 20
451.89453125
 10
376.0966796875
 20
451.306640625
 10
376.0966796875
 20
449.88671875
 10
376.8232421875
 20
449.779296875
 10
377.9169921875
 20
449.6171875
 10
377.9169921875
 20
449.6171875
 10
377.9169921875
 20
448.94921875
 10
377.9169921875
 20
448.94921875
 10
377.9169921875
 20
448.94921875
 10
373.2041015625
 20
448.94921875
 10
373.2041015625
 20
448.94921875
 10
373.2041015625
 20
448.94921875
 10
373.2041015625
 20
449.6171875
 10
373.2041015625
 20
449.6171875
 10
374.3212890625
 20
449.939453125
 10
374.5927734375
 20
450.01953125
 10
375.5029296875
 20
453.716796875
 10
375.5029296875
 20
453.716796875
 10
377.9853515625
 20
463.7109375
 10
377.9853515625
 20
463.7109375
 10
378.2353515625
 20
464.67578125
 10
378.2353515625
 20
465.158203125
 10
378.2353515625
 20
465.265625
 10
378.2353515625
 20
466.095703125
 10
377.8017578125
 20
466.1484375
 10
376.5966796875
 20
466.203125
 10
376.5966796875
 20
466.203125
 10
376.5966796875
 20
466.873046875
 10
376.5966796875
 20
466.873046875
 10
376.5966796875
 20
466.873046875
 10
381.6279296875
 20
466.873046875
 10
381.6279296875
 20
466.873046875
 10
381.6279296875
 20
466.873046875
 10
382.8583984375
 20
454.091796875
 10
382.8583984375
 20
454.091796875
 10
382.8583984375
 20
454.091796875
 10
382.9013671875
 20
454.091796875
 10
382.9013671875
 20
454.091796875
 10
382.9013671875
 20
454.091796875
 10
389.9130859375
 20
466.873046875
 10
389.9130859375
 20
466.873046875
 10
389.9130859375
 20
466.873046875
 10
394.7392578125
 20
466.873046875
 10
394.7392578125
 20
466.873046875
 10
394.7392578125
 20
466.873046875
 10
394.7392578125
 20
466.203125
 10
394.7392578125
 20
466.203125
 10
393.8310546875
 20
466.04296875
 10
393.2822265625
 20
465.93359375
 10
392.8955078125
 20
464.2734375
 10
392.8955078125
 20
464.2734375
 10
390.0947265625
 20
452.244140625
 10
390.0947265625
 20
452.244140625
 97
        0
 75
     2
 76
     1
 98
        0
  0
SPLINE
  5
53
330
3C
100
AcDbEntity
  8
Layer 1
370
     0
100
AcDbSpline
210
0.0
220
0.0
230
1.0
 70
    11
 71
     3
 72
    20
 73
    16
 74
     0
 42
0.0000000001
 43
0.0000000001
 40
0.0
 40
0.0
 40
0.0
 40
0.0
 40
1.0
 40
1.0
 40
1.0
 40
2.0
 40
2.0
 40
2.0
 40
3.0
 40
3.0
 40
3.0
 40
4.0
 40
4.0
 40
4.0
 40
5.0
 40
5.0
 40
5.0
 40
5.0
 10
393.75390625
 20
451.1875
 30
0.0
 10
393.75390625
 20
451.1875
 30
0.0
 10
394.037109375
 20
451.1875
 30
0.0
 10
394.037109375
 20
451.1875
 30
0.0
 10
394.361328125
 20
451.1875
 30
0.0
 10
394.638671875
 20
451.30078125
 30
0.0
 10
394.638671875
 20
451.591796875
 30
0.0
 10
394.638671875
 20
451.798828125
 30
0.0
 10
394.48046875
 20
452.00390625
 30
0.0
 10
394.037109375
 20
452.00390625
 30
0.0
 10
393.91015625
 20
452.00390625
 30
0.0
 10
393.822265625
 20
451.994140625
 30
0.0
 10
393.75390625
 20
451.984375
 30
0.0
 10
393.75390625
 20
451.984375
 30
0.0
 10
393.75390625
 20
451.1875
 30
0.0
 10
393.75390625
 20
451.1875
 30
0.0
  0
SPLINE
  5
54
330
3C
100
AcDbEntity
  8
Layer 1
370
     0
100
AcDbSpline
210
0.0
220
0.0
230
1.0
 70
    11
 71
     3
 72
    47
 73
    43
 74
     0
 42
0.0000000001
 43
0.0000000001
 40
0.0
 40
0.0
 40
0.0
 40
0.0
 40
1.0
 40
1.0
 40
1.0
 40
2.0
 40
2.0
 40
2.0
 40
3.0
 40
3.0
 40
3.0
 40
4.0
 40
4.0
 40
4.0
 40
5.0
 40
5.0
 40
5.0
 40
6.0
 40
6.0
 40
6.0
 40
7.0
 40
7.0
 40
7.0
 40
8.0
 40
8.0
 40
8.0
 40
9.0
 40
9.0
 40
9.0
 40
10.0
 40
10.0
 40
10.0
 40
11.0
 40
11.0
 40
11.0
 40
12.0
 40
12.0
 40
12.0
 40
13.0
 40
13.0
 40
13.0
 40
14.0
 40
14.0
 40
14.0
 40
14.0
 10
393.75390625
 20
449.884765625
 30
0.0
 10
393.75390625
 20
449.884765625
 30
0.0
 10
393.357421875
 20
449.884765625
 30
0.0
 10
393.357421875
 20
449.884765625
 30
0.0
 10
393.357421875
 20
449.884765625
 30
0.0
 10
393.357421875
 20
452.23828125
 30
0.0
 10
393.357421875
 20
452.23828125
 30
0.0
 10
393.564453125
 20
452.267578125
 30
0.0
 10
393.763671875
 20
452.294921875
 30
0.0
 10
394.056640625
 20
452.294921875
 30
0.0
 10
394.43359375
 20
452.294921875
 30
0.0
 10
394.677734375
 20
452.220703125
 30
0.0
 10
394.82421875
 20
452.1171875
 30
0.0
 10
394.97265625
 20
452.013671875
 30
0.0
 10
395.05078125
 20
451.853515625
 30
0.0
 10
395.05078125
 20
451.626953125
 30
0.0
 10
395.05078125
 20
451.318359375
 30
0.0
 10
394.833984375
 20
451.1328125
 30
0.0
 10
394.568359375
 20
451.056640625
 30
0.0
 10
394.568359375
 20
451.056640625
 30
0.0
 10
394.568359375
 20
451.0390625
 30
0.0
 10
394.568359375
 20
451.0390625
 30
0.0
 10
394.78515625
 20
451.001953125
 30
0.0
 10
394.93359375
 20
450.814453125
 30
0.0
 10
394.982421875
 20
450.46484375
 30
0.0
 10
395.041015625
 20
450.1015625
 30
0.0
 10
395.099609375
 20
449.9609375
 30
0.0
 10
395.138671875
 20
449.884765625
 30
0.0
 10
395.138671875
 20
449.884765625
 30
0.0
 10
394.7265625
 20
449.884765625
 30
0.0
 10
394.7265625
 20
449.884765625
 30
0.0
 10
394.66796875
 20
449.9609375
 30
0.0
 10
394.607421875
 20
450.173828125
 30
0.0
 10
394.560546875
 20
450.484375
 30
0.0
 10
394.501953125
 20
450.78515625
 30
0.0
 10
394.341796875
 20
450.8984375
 30
0.0
 10
394.02734375
 20
450.8984375
 30
0.0
 10
394.02734375
 20
450.8984375
 30
0.0
 10
393.75390625
 20
450.8984375
 30
0.0
 10
393.75390625
 20
450.8984375
 30
0.0
 10
393.75390625
 20
450.8984375
 30
0.0
 10
393.75390625
 20
449.884765625
 30
0.0
 10
393.75390625
 20
449.884765625
 30
0.0
  0
SPLINE
  5
55
330
3C
100
AcDbEntity
  8
Layer 1
370
     0
100
AcDbSpline
210
0.0
220
0.0
230
1.0
 70
    11
 71
     3
 72
    20
 73
    16
 74
     0
 42
0.0000000001
 43
0.0000000001
 40
0.0
 40
0.0
 40
0.0
 40
0.0
 40
1.0
 40
1.0
 40
1.0
 40
2.0
 40
2.0
 40
2.0
 40
3.0
 40
3.0
 40
3.0
 40
4.0
 40
4.0
 40
4.0
 40
5.0
 40
5.0
 40
5.0
 40
5.0
 10
394.1640625
 20
452.896484375
 30
0.0
 10
393.19140625
 20
452.896484375
 30
0.0
 10
392.39453125
 20
452.09765625
 30
0.0
 10
392.39453125
 20
451.11328125
 30
0.0
 10
392.39453125
 20
450.109375
 30
0.0
 10
393.19140625
 20
449.322265625
 30
0.0
 10
394.17578125
 20
449.322265625
 30
0.0
 10
395.158203125
 20
449.3125
 30
0.0
 10
395.943359375
 20
450.109375
 30
0.0
 10
395.943359375
 20
451.10546875
 30
0.0
 10
395.943359375
 20
452.09765625
 30
0.0
 10
395.158203125
 20
452.896484375
 30
0.0
 10
394.17578125
 20
452.896484375
 30
0.0
 10
394.17578125
 20
452.896484375
 30
0.0
 10
394.1640625
 20
452.896484375
 30
0.0
 10
394.1640625
 20
452.896484375
 30
0.0
  0
SPLINE
  5
56
330
3C
100
AcDbEntity
  8
Layer 1
370
     0
100
AcDbSpline
210
0.0
220
0.0
230
1.0
 70
    11
 71
     3
 72
    20
 73
    16
 74
     0
 42
0.0000000001
 43
0.0000000001
 40
0.0
 40
0.0
 40
0.0
 40
0.0
 40
1.0
 40
1.0
 40
1.0
 40
2.0
 40
2.0
 40
2.0
 40
3.0
 40
3.0
 40
3.0
 40
4.0
 40
4.0
 40
4.0
 40
5.0
 40
5.0
 40
5.0
 40
5.0
 10
394.17578125
 20
453.22265625
 30
0.0
 10
395.384765625
 20
453.22265625
 30
0.0
 10
396.349609375
 20
452.28515625
 30
0.0
 10
396.349609375
 20
451.11328125
 30
0.0
 10
396.349609375
 20
449.923828125
 30
0.0
 10
395.384765625
 20
448.9921875
 30
0.0
 10
394.1640625
 20
448.9921875
 30
0.0
 10
392.95703125
 20
448.9921875
 30
0.0
 10
391.974609375
 20
449.923828125
 30
0.0
 10
391.974609375
 20
451.11328125
 30
0.0
 10
391.974609375
 20
452.28515625
 30
0.0
 10
392.95703125
 20
453.22265625
 30
0.0
 10
394.1640625
 20
453.22265625
 30
0.0
 10
394.1640625
 20
453.22265625
 30
0.0
 10
394.17578125
 20
453.22265625
 30
0.0
 10
394.17578125
 20
453.22265625
 30
0.0
  0
HATCH
  5
57
330
3C
100
AcDbEntity
  8
Layer 1
 62
   134
420
    43171
100
AcDbHatch
 10
0.0
 20
0.0
 30
0.0
210
0.0
220
0.0
230
1.0
  2
SOLID
 70
     1
 71
     0
 91
        4
 92
        1
 93
        1
 72
     4
 94
        3
 73
     0
 74
     1
 95
       20
 96
       16
 40
0.0
 40
0.0
 40
0.0
 40
0.0
 40
1.0
 40
1.0
 40
1.0
 40
2.0
 40
2.0
 40
2.0
 40
3.0
 40
3.0
 40
3.0
 40
4.0
 40
4.0
 40
4.0
 40
5.0
 40
5.0
 40
5.0
 40
5.0
 10
393.75390625
 20
451.1875
 10
393.75390625
 20
451.1875
 10
394.037109375
 20
451.1875
 10
394.037109375
 20
451.1875
 10
394.361328125
 20
451.1875
 10
394.638671875
 20
451.30078125
 10
394.638671875
 20
451.591796875
 10
394.638671875
 20
451.798828125
 10
394.48046875
 20
452.00390625
 10
394.037109375
 20
452.00390625
 10
393.91015625
 20
452.00390625
 10
393.822265625
 20
451.994140625
 10
393.75390625
 20
451.984375
 10
393.75390625
 20
451.984375
 10
393.75390625
 20
451.1875
 10
393.75390625
 20
451.1875
 97
        0
 92
        1
 93
        1
 72
     4
 94
        3
 73
     0
 74
     1
 95
       47
 96
       43
 40
0.0
 40
0.0
 40
0.0
 40
0.0
 40
1.0
 40
1.0
 40
1.0
 40
2.0
 40
2.0
 40
2.0
 40
3.0
 40
3.0
 40
3.0
 40
4.0
 40
4.0
 40
4.0
 40
5.0
 40
5.0
 40
5.0
 40
6.0
 40
6.0
 40
6.0
 40
7.0
 40
7.0
 40
7.0
 40
8.0
 40
8.0
 40
8.0
 40
9.0
 40
9.0
 40
9.0
 40
10.0
 40
10.0
 40
10.0
 40
11.0
 40
11.0
 40
11.0
 40
12.0
 40
12.0
 40
12.0
 40
13.0
 40
13.0
 40
13.0
 40
14.0
 40
14.0
 40
14.0
 40
14.0
 10
393.75390625
 20
449.884765625
 10
393.75390625
 20
449.884765625
 10
393.357421875
 20
449.884765625
 10
393.357421875
 20
449.884765625
 10
393.357421875
 20
449.884765625
 10
393.357421875
 20
452.23828125
 10
393.357421875
 20
452.23828125
 10
393.564453125
 20
452.267578125
 10
393.763671875
 20
452.294921875
 10
394.056640625
 20
452.294921875
 10
394.43359375
 20
452.294921875
 10
394.677734375
 20
452.220703125
 10
394.82421875
 20
452.1171875
 10
394.97265625
 20
452.013671875
 10
395.05078125
 20
451.853515625
 10
395.05078125
 20
451.626953125
 10
395.05078125
 20
451.318359375
 10
394.833984375
 20
451.1328125
 10
394.568359375
 20
451.056640625
 10
394.568359375
 20
451.056640625
 10
394.568359375
 20
451.0390625
 10
394.568359375
 20
451.0390625
 10
394.78515625
 20
451.001953125
 10
394.93359375
 20
450.814453125
 10
394.982421875
 20
450.46484375
 10
395.041015625
 20
450.1015625
 10
395.099609375
 20
449.9609375
 10
395.138671875
 20
449.884765625
 10
395.138671875
 20
449.884765625
 10
394.7265625
 20
449.884765625
 10
394.7265625
 20
449.884765625
 10
394.66796875
 20
449.9609375
 10
394.607421875
 20
450.173828125
 10
394.560546875
 20
450.484375
 10
394.501953125
 20
450.78515625
 10
394.341796875
 20
450.8984375
 10
394.02734375
 20
450.8984375
 10
394.02734375
 20
450.8984375
 10
393.75390625
 20
450.8984375
 10
393.75390625
 20
450.8984375
 10
393.75390625
 20
450.8984375
 10
393.75390625
 20
449.884765625
 10
393.75390625
 20
449.884765625
 97
        0
 92
        1
 93
        1
 72
     4
 94
        3
 73
     0
 74
     1
 95
       20
 96
       16
 40
0.0
 40
0.0
 40
0.0
 40
0.0
 40
1.0
 40
1.0
 40
1.0
 40
2.0
 40
2.0
 40
2.0
 40
3.0
 40
3.0
 40
3.0
 40
4.0
 40
4.0
 40
4.0
 40
5.0
 40
5.0
 40
5.0
 40
5.0
 10
394.1640625
 20
452.896484375
 10
393.19140625
 20
452.896484375
 10
392.39453125
 20
452.09765625
 10
392.39453125
 20
451.11328125
 10
392.39453125
 20
450.109375
 10
393.19140625
 20
449.322265625
 10
394.17578125
 20
449.322265625
 10
395.158203125
 20
449.3125
 10
395.943359375
 20
450.109375
 10
395.943359375
 20
451.10546875
 10
395.943359375
 20
452.09765625
 10
395.158203125
 20
452.896484375
 10
394.17578125
 20
452.896484375
 10
394.17578125
 20
452.896484375
 10
394.1640625
 20
452.896484375
 10
394.1640625
 20
452.896484375
 97
        0
 92
        1
 93
        1
 72
     4
 94
        3
 73
     0
 74
     1
 95
       20
 96
       16
 40
0.0
 40
0.0
 40
0.0
 40
0.0
 40
1.0
 40
1.0
 40
1.0
 40
2.0
 40
2.0
 40
2.0
 40
3.0
 40
3.0
 40
3.0
 40
4.0
 40
4.0
 40
4.0
 40
5.0
 40
5.0
 40
5.0
 40
5.0
 10
394.17578125
 20
453.22265625
 10
395.384765625
 20
453.22265625
 10
396.349609375
 20
452.28515625
 10
396.349609375
 20
451.11328125
 10
396.349609375
 20
449.923828125
 10
395.384765625
 20
448.9921875
 10
394.1640625
 20
448.9921875
 10
392.95703125
 20
448.9921875
 10
391.974609375
 20
449.923828125
 10
391.974609375
 20
451.11328125
 10
391.974609375
 20
452.28515625
 10
392.95703125
 20
453.22265625
 10
394.1640625
 20
453.22265625
 10
394.1640625
 20
453.22265625
 10
394.17578125
 20
453.22265625
 10
394.17578125
 20
453.22265625
 97
        0
 75
     2
 76
     1
 98
        0
  0
INSERT
  5
59
330
3C
100
AcDbEntity
  8
Layer 1
100
AcDbBlockReference
  2
block 3
 10
0.0
 20
0.0
 30
0.0
  0
ENDBLK
  5
3F
330
3C
100
AcDbEntity
  8
0
100
AcDbBlockEnd
  0
BLOCK
  5
5A
330
58
100
AcDbEntity
  8
0
100
AcDbBlockBegin
  2
block 3
 70
     0
 71
     0
 10
0.0
 20
0.0
 30
0.0
  3
block 3
  1

  0
INSERT
  5
5D
330
58
100
AcDbEntity
  8
Layer 1
100
AcDbBlockReference
  2
block 4
 10
0.0
 20
0.0
 30
0.0
  0
INSERT
  5
69
330
58
100
AcDbEntity
  8
Layer 1
100
AcDbBlockReference
  2
block 5
 10
0.0
 20
0.0
 30
0.0
  0
INSERT
  5
75
330
58
100
AcDbEntity
  8
Layer 1
100
AcDbBlockReference
  2
block 6
 10
0.0
 20
0.0
 30
0.0
  0
INSERT
  5
81
330
58
100
AcDbEntity
  8
Layer 1
100
AcDbBlockReference
  2
block 7
 10
0.0
 20
0.0
 30
0.0
  0
INSERT
  5
8D
330
58
100
AcDbEntity
  8
Layer 1
100
AcDbBlockReference
  2
block 8
 10
0.0
 20
0.0
 30
0.0
  0
ENDBLK
  5
5B
330
58
100
AcDbEntity
  8
0
100
AcDbBlockEnd
  0
BLOCK
  5
5E
330
5C
100
AcDbEntity
  8
0
100
AcDbBlockBegin
  2
block 4
 70
     0
 71
     0
 10
0.0
 20
0.0
 30
0.0
  3
block 4
  1

  0
POLYLINE
  5
60
330
5C
100
AcDbEntity
  8
Layer 1
370
     0
100
AcDb2dPolyline
 66
     1
 10
0.0
 20
0.0
 30
0.0
  0
VERTEX
  5
61
330
60
100
AcDbEntity
  8
Layer 1
370
     0
100
AcDbVertex
100
AcDb2dVertex
 10
217.22265625
 20
447.49609375
 30
0.0
  0
VERTEX
  5
62
330
60
100
AcDbEntity
  8
Layer 1
370
     0
100
AcDbVertex
100
AcDb2dVertex
 10
228.798828125
 20
447.49609375
 30
0.0
  0
VERTEX
  5
63
330
60
100
AcDbEntity
  8
Layer 1
370
     0
100
AcDbVertex
100
AcDb2dVertex
 10
228.798828125
 20
443.296875
 30
0.0
  0
VERTEX
  5
64
330
60
100
AcDbEntity
  8
Layer 1
370
     0
100
AcDbVertex
100
AcDb2dVertex
 10
217.22265625
 20
443.296875
 30
0.0
  0
VERTEX
  5
65
330
60
100
AcDbEntity
  8
Layer 1
370
     0
100
AcDbVertex
100
AcDb2dVertex
 10
217.22265625
 20
447.49609375
 30
0.0
  0
SEQEND
  5
66
330
60
100
AcDbEntity
  8
Layer 1
370
     0
  0
HATCH
  5
67
330
5C
100
AcDbEntity
  8
Layer 1
 62
    40
420
 16494102
100
AcDbHatch
 10
0.0
 20
0.0
 30
0.0
210
0.0
220
0.0
230
1.0
  2
SOLID
 70
     1
 71
     0
 91
        1
 92
        1
 93
        4
 72
     1
 10
217.22265625
 20
447.49609375
 11
228.798828125
 21
447.49609375
 72
     1
 10
228.798828125
 20
447.49609375
 11
228.798828125
 21
443.296875
 72
     1
 10
228.798828125
 20
443.296875
 11
217.22265625
 21
443.296875
 72
     1
 10
217.22265625
 20
443.296875
 11
217.22265625
 21
447.49609375
 97
        0
 75
     2
 76
     1
 98
        0
  0
ENDBLK
  5
5F
330
5C
100
AcDbEntity
  8
0
100
AcDbBlockEnd
  0
BLOCK
  5
6A
330
68
100
AcDbEntity
  8
0
100
AcDbBlockBegin
  2
block 5
 70
     0
 71
     0
 10
0.0
 20
0.0
 30
0.0
  3
block 5
  1

  0
POLYLINE
  5
6C
330
68
100
AcDbEntity
  8
Layer 1
370
     0
100
AcDb2dPolyline
 66
     1
 10
0.0
 20
0.0
 30
0.0
  0
VERTEX
  5
6D
330
6C
100
AcDbEntity
  8
Layer 1
370
     0
100
AcDbVertex
100
AcDb2dVertex
 10
229.99609375
 20
447.49609375
 30
0.0
  0
VERTEX
  5
6E
330
6C
100
AcDbEntity
  8
Layer 1
370
     0
100
AcDbVertex
100
AcDb2dVertex
 10
247.548828125
 20
447.49609375
 30
0.0
  0
VERTEX
  5
6F
330
6C
100
AcDbEntity
  8
Layer 1
370
     0
100
AcDbVertex
100
AcDb2dVertex
 10
247.548828125
 20
443.296875
 30
0.0
  0
VERTEX
  5
70
330
6C
100
AcDbEntity
  8
Layer 1
370
     0
100
AcDbVertex
100
AcDb2dVertex
 10
229.99609375
 20
443.296875
 30
0.0
  0
VERTEX
  5
71
330
6C
100
AcDbEntity
  8
Layer 1
370
     0
100
AcDbVertex
100
AcDb2dVertex
 10
229.99609375
 20
447.49609375
 30
0.0
  0
SEQEND
  5
72
330
6C
100
AcDbEntity
  8
Layer 1
370
     0
  0
HATCH
  5
73
330
68
100
AcDbEntity
  8
Layer 1
 62
    40
420
 16494102
100
AcDbHatch
 10
0.0
 20
0.0
 30
0.0
210
0.0
220
0.0
230
1.0
  2
SOLID
 70
     1
 71
     0
 91
        1
 92
        1
 93
        4
 72
     1
 10
229.99609375
 20
447.49609375
 11
247.548828125
 21
447.49609375
 72
     1
 10
247.548828125
 20
447.49609375
 11
247.548828125
 21
443.296875
 72
     1
 10
247.548828125
 20
443.296875
 11
229.99609375
 21
443.296875
 72
     1
 10
229.99609375
 20
443.296875
 11
229.99609375
 21
447.49609375
 97
        0
 75
     2
 76
     1
 98
        0
  0
ENDBLK
  5
6B
330
68
100
AcDbEntity
  8
0
100
AcDbBlockEnd
  0
BLOCK
  5
76
330
74
100
AcDbEntity
  8
0
100
AcDbBlockBegin
  2
block 6
 70
     0
 71
     0
 10
0.0
 20
0.0
 30
0.0
  3
block 6
  1

  0
POLYLINE
  5
78
330
74
100
AcDbEntity
  8
Layer 1
370
     0
100
AcDb2dPolyline
 66
     1
 10
0.0
 20
0.0
 30
0.0
  0
VERTEX
  5
79
330
78
100
AcDbEntity
  8
Layer 1
370
     0
100
AcDbVertex
100
AcDb2dVertex
 10
249.66796875
 20
447.49609375
 30
0.0
  0
VERTEX
  5
7A
330
78
100
AcDbEntity
  8
Layer 1
370
     0
100
AcDbVertex
100
AcDb2dVertex
 10
276.91015625
 20
447.49609375
 30
0.0
  0
VERTEX
  5
7B
330
78
100
AcDbEntity
  8
Layer 1
370
     0
100
AcDbVertex
100
AcDb2dVertex
 10
276.91015625
 20
443.296875
 30
0.0
  0
VERTEX
  5
7C
330
78
100
AcDbEntity
  8
Layer 1
370
     0
100
AcDbVertex
100
AcDb2dVertex
 10
249.66796875
 20
443.296875
 30
0.0
  0
VERTEX
  5
7D
330
78
100
AcDbEntity
  8
Layer 1
370
     0
100
AcDbVertex
100
AcDb2dVertex
 10
249.66796875
 20
447.49609375
 30
0.0
  0
SEQEND
  5
7E
330
78
100
AcDbEntity
  8
Layer 1
370
     0
  0
HATCH
  5
7F
330
74
100
AcDbEntity
  8
Layer 1
 62
    40
420
 16494102
100
AcDbHatch
 10
0.0
 20
0.0
 30
0.0
210
0.0
220
0.0
230
1.0
  2
SOLID
 70
     1
 71
     0
 91
        1
 92
        1
 93
        4
 72
     1
 10
249.66796875
 20
447.49609375
 11
276.91015625
 21
447.49609375
 72
     1
 10
276.91015625
 20
447.49609375
 11
276.91015625
 21
443.296875
 72
     1
 10
276.91015625
 20
443.296875
 11
249.66796875
 21
443.296875
 72
     1
 10
249.66796875
 20
443.296875
 11
249.66796875
 21
447.49609375
 97
        0
 75
     2
 76
     1
 98
        0
  0
ENDBLK
  5
77
330
74
100
AcDbEntity
  8
0
100
AcDbBlockEnd
  0
BLOCK
  5
82
330
80
100
AcDbEntity
  8
0
100
AcDbBlockBegin
  2
block 7
 70
     0
 71
     0
 10
0.0
 20
0.0
 30
0.0
  3
block 7
  1

  0
POLYLINE
  5
84
330
80
100
AcDbEntity
  8
Layer 1
370
     0
100
AcDb2dPolyline
 66
     1
 10
0.0
 20
0.0
 30
0.0
  0
VERTEX
  5
85
330
84
100
AcDbEntity
  8
Layer 1
370
     0
100
AcDbVertex
100
AcDb2dVertex
 10
279.72265625
 20
447.49609375
 30
0.0
  0
VERTEX
  5
86
330
84
100
AcDbEntity
  8
Layer 1
370
     0
100
AcDbVertex
100
AcDb2dVertex
 10
322.052734375
 20
447.49609375
 30
0.0
  0
VERTEX
  5
87
330
84
100
AcDbEntity
  8
Layer 1
370
     0
100
AcDbVertex
100
AcDb2dVertex
 10
322.052734375
 20
443.296875
 30
0.0
  0
VERTEX
  5
88
330
84
100
AcDbEntity
  8
Layer 1
370
     0
100
AcDbVertex
100
AcDb2dVertex
 10
279.72265625
 20
443.296875
 30
0.0
  0
VERTEX
  5
89
330
84
100
AcDbEntity
  8
Layer 1
370
     0
100
AcDbVertex
100
AcDb2dVertex
 10
279.72265625
 20
447.49609375
 30
0.0
  0
SEQEND
  5
8A
330
84
100
AcDbEntity
  8
Layer 1
370
     0
  0
HATCH
  5
8B
330
80
100
AcDbEntity
  8
Layer 1
 62
    40
420
 16494102
100
AcDbHatch
 10
0.0
 20
0.0
 30
0.0
210
0.0
220
0.0
230
1.0
  2
SOLID
 70
     1
 71
     0
 91
        1
 92
        1
 93
        4
 72
     1
 10
279.72265625
 20
447.49609375
 11
322.052734375
 21
447.49609375
 72
     1
 10
322.052734375
 20
447.49609375
 11
322.052734375
 21
443.296875
 72
     1
 10
322.052734375
 20
443.296875
 11
279.72265625
 21
443.296875
 72
     1
 10
279.72265625
 20
443.296875
 11
279.72265625
 21
447.49609375
 97
        0
 75
     2
 76
     1
 98
        0
  0
ENDBLK
  5
83
330
80
100
AcDbEntity
  8
0
100
AcDbBlockEnd
  0
BLOCK
  5
8E
330
8C
100
AcDbEntity
  8
0
100
AcDbBlockBegin
  2
block 8
 70
     0
 71
     0
 10
0.0
 20
0.0
 30
0.0
  3
block 8
  1

  0
POLYLINE
  5
90
330
8C
100
AcDbEntity
  8
Layer 1
370
     0
100
AcDb2dPolyline
 66
     1
 10
0.0
 20
0.0
 30
0.0
  0
VERTEX
  5
91
330
90
100
AcDbEntity
  8
Layer 1
370
     0
100
AcDbVertex
100
AcDb2dVertex
 10
326.2509765625
 20
447.49609375
 30
0.0
  0
VERTEX
  5
92
330
90
100
AcDbEntity
  8
Layer 1
370
     0
100
AcDbVertex
100
AcDb2dVertex
 10
391.509765625
 20
447.49609375
 30
0.0
  0
VERTEX
  5
93
330
90
100
AcDbEntity
  8
Layer 1
370
     0
100
AcDbVertex
100
AcDb2dVertex
 10
391.509765625
 20
443.296875
 30
0.0
  0
VERTEX
  5
94
330
90
100
AcDbEntity
  8
Layer 1
370
     0
100
AcDbVertex
100
AcDb2dVertex
 10
326.2509765625
 20
443.296875
 30
0.0
  0
VERTEX
  5
95
330
90
100
AcDbEntity
  8
Layer 1
370
     0
100
AcDbVertex
100
AcDb2dVertex
 10
326.2509765625
 20
447.49609375
 30
0.0
  0
SEQEND
  5
96
330
90
100
AcDbEntity
  8
Layer 1
370
     0
  0
HATCH
  5
97
330
8C
100
AcDbEntity
  8
Layer 1
 62
    40
420
 16494102
100
AcDbHatch
 10
0.0
 20
0.0
 30
0.0
210
0.0
220
0.0
230
1.0
  2
SOLID
 70
     1
 71
     0
 91
        1
 92
        1
 93
        4
 72
     1
 10
326.2509765625
 20
447.49609375
 11
391.509765625
 21
447.49609375
 72
     1
 10
391.509765625
 20
447.49609375
 11
391.509765625
 21
443.296875
 72
     1
 10
391.509765625
 20
443.296875
 11
326.2509765625
 21
443.296875
 72
     1
 10
326.2509765625
 20
443.296875
 11
326.2509765625
 21
447.49609375
 97
        0
 75
     2
 76
     1
 98
        0
  0
ENDBLK
  5
8F
330
8C
100
AcDbEntity
  8
0
100
AcDbBlockEnd
  0
ENDSEC
  0
SECTION
  2
ENTITIES
  0
INSERT
  5
3D
330
1F
100
AcDbEntity
  8
Layer 1
100
AcDbBlockReference
  2
block 2
 10
0.0
 20
0.0
 30
0.0
  0
ENDSEC
  0
SECTION
  2
OBJECTS
  0
DICTIONARY
  5
C
330
0
100
AcDbDictionary
281
     1
  3
ACAD_GROUP
350
D
  3
ACAD_LAYOUT
350
1A
  3
ACAD_MLINESTYLE
350
17
  3
ACAD_PLOTSETTINGS
350
19
  3
ACAD_PLOTSTYLENAME
350
E
  3
ACAD_TABLESTYLE
350
98
  3
ACAD_VISUALSTYLE
350
2A
  0
DICTIONARY
  5
D
102
{ACAD_REACTORS
330
C
102
}
330
C
100
AcDbDictionary
281
     1
  0
DICTIONARY
  5
1A
102
{ACAD_REACTORS
330
C
102
}
330
C
100
AcDbDictionary
281
     1
  3
Layout1
350
1E
  3
Layout2
350
26
  3
Model
350
22
  0
DICTIONARY
  5
17
102
{ACAD_REACTORS
330
C
102
}
330
C
100
AcDbDictionary
281
     1
  3
Standard
350
18
  0
DICTIONARY
  5
19
102
{ACAD_REACTORS
330
C
102
}
330
C
100
AcDbDictionary
281
     1
  0
ACDBDICTIONARYWDFLT
  5
E
102
{ACAD_REACTORS
330
C
102
}
330
C
100
AcDbDictionary
281
     1
  3
Normal
350
F
100
AcDbDictionaryWithDefault
340
F
  0
DICTIONARY
  5
98
102
{ACAD_REACTORS
330
C
102
}
330
C
100
AcDbDictionary
281
     1
  0
DICTIONARY
  5
2A
102
{ACAD_REACTORS
330
C
102
}
330
C
100
AcDbDictionary
281
     1
  3
2dWireframe
350
2F
  3
3D Hidden
350
31
  3
3dWireframe
350
30
  3
Basic
350
32
  3
Brighten
350
36
  3
ColorChange
350
3A
  3
Conceptual
350
34
  3
Dim
350
35
  3
Facepattern
350
39
  3
Flat
350
2B
  3
FlatWithEdges
350
2C
  3
Gouraud
350
2D
  3
GouraudWithEdges
350
2E
  3
Linepattern
350
38
  3
Realistic
350
33
  3
Thicken
350
37
  0
LAYOUT
  5
1E
102
{ACAD_REACTORS
330
1A
102
}
330
1A
100
AcDbPlotSettings
  1

  2
none_device
  4

  6

 40
0.0
 41
0.0
 42
0.0
 43
0.0
 44
0.0
 45
0.0
 46
0.0
 47
0.0
 48
0.0
 49
0.0
140
0.0
141
0.0
142
1.0
143
1.0
 70
   688
 72
     0
 73
     0
 74
     5
  7

 75
    16
 76
     0
 77
     2
 78
   300
147
1.0
148
0.0
149
0.0
100
AcDbLayout
  1
Layout1
 70
     1
 71
     1
 10
0.0
 20
0.0
 11
12.0
 21
9.0
 12
0.0
 22
0.0
 32
0.0
 14
1.000000000000000E+20
 24
1.000000000000000E+20
 34
1.000000000000000E+20
 15
-1.000000000000000E+20
 25
-1.000000000000000E+20
 35
-1.000000000000000E+20
146
0.0
 13
0.0
 23
0.0
 33
0.0
 16
1.0
 26
0.0
 36
0.0
 17
0.0
 27
1.0
 37
0.0
 76
     0
330
1B
  0
LAYOUT
  5
26
102
{ACAD_REACTORS
330
1A
102
}
330
1A
100
AcDbPlotSettings
  1

  2
none_device
  4

  6

 40
0.0
 41
0.0
 42
0.0
 43
0.0
 44
0.0
 45
0.0
 46
0.0
 47
0.0
 48
0.0
 49
0.0
140
0.0
141
0.0
142
1.0
143
1.0
 70
   688
 72
     0
 73
     0
 74
     5
  7

 75
    16
 76
     0
 77
     2
 78
   300
147
1.0
148
0.0
149
0.0
100
AcDbLayout
  1
Layout2
 70
     1
 71
     2
 10
0.0
 20
0.0
 11
0.0
 21
0.0
 12
0.0
 22
0.0
 32
0.0
 14
0.0
 24
0.0
 34
0.0
 15
0.0
 25
0.0
 35
0.0
146
0.0
 13
0.0
 23
0.0
 33
0.0
 16
1.0
 26
0.0
 36
0.0
 17
0.0
 27
1.0
 37
0.0
 76
     0
330
23
  0
LAYOUT
  5
22
102
{ACAD_REACTORS
330
1A
102
}
330
1A
100
AcDbPlotSettings
  1

  2
none_device
  4

  6

 40
0.0
 41
0.0
 42
0.0
 43
0.0
 44
0.0
 45
0.0
 46
0.0
 47
0.0
 48
0.0
 49
0.0
140
0.0
141
0.0
142
1.0
143
1.0
 70
  1712
 72
     0
 73
     0
 74
     0
  7

 75
     0
 76
     0
 77
     2
 78
   300
147
1.0
148
0.0
149
0.0
100
AcDbLayout
  1
Model
 70
     1
 71
     0
 10
0.0
 20
0.0
 11
12.0
 21
9.0
 12
0.0
 22
0.0
 32
0.0
 14
1.000000000000000E+20
 24
1.000000000000000E+20
 34
1.000000000000000E+20
 15
-1.000000000000000E+20
 25
-1.000000000000000E+20
 35
-1.000000000000000E+20
146
0.0
 13
0.0
 23
0.0
 33
0.0
 16
1.0
 26
0.0
 36
0.0
 17
0.0
 27
1.0
 37
0.0
 76
     0
330
1F
331
29
  0
MLINESTYLE
  5
18
102
{ACAD_REACTORS
330
17
102
}
330
17
100
AcDbMlineStyle
  2
Standard
 70
     0
  3

 62
   256
 51
90.0
 52
90.0
 71
     2
 49
0.5
 62
   256
  6
BYLAYER
 49
-0.5
 62
   256
  6
BYLAYER
  0
ACDBPLACEHOLDER
  5
F
102
{ACAD_REACTORS
330
E
102
}
330
E
  0
VISUALSTYLE
  5
2F
102
{ACAD_REACTORS
330
2A
102
}
330
2A
100
AcDbVisualStyle
  2
2dWireframe
 70
     4
 71
     0
 72
     2
 73
     0
 90
        0
 40
-0.6
 41
-30.0
 62
     5
 63
     7
421
 16777215
 74
     1
 91
        4
 64
     7
 65
   257
 75
     1
175
     1
 42
1.0
 92
        0
 66
   257
 43
1.0
 76
     1
 77
     6
 78
     2
 67
     7
 79
     5
170
     0
171
     0
290
     0
174
     0
 93
        1
 44
0.0
173
     0
291
     0
 45
0.0
1001
ACAD
1000
AcDbSavedByObjectVersion
1070
     0
  0
VISUALSTYLE
  5
31
102
{ACAD_REACTORS
330
2A
102
}
330
2A
100
AcDbVisualStyle
  2
3D Hidden
 70
     6
 71
     1
 72
     2
 73
     2
 90
        0
 40
-0.6
 41
-30.0
 62
     5
 63
     7
421
 16777215
 74
     2
 91
        2
 64
     7
 65
   257
 75
     2
175
     1
 42
40.0
 92
        0
 66
   257
 43
1.0
 76
     1
 77
     6
 78
     2
 67
     7
 79
     3
170
     0
171
     0
290
     0
174
     0
 93
        1
 44
0.0
173
     0
291
     0
 45
0.0
1001
ACAD
1000
AcDbSavedByObjectVersion
1070
     0
  0
VISUALSTYLE
  5
30
102
{ACAD_REACTORS
330
2A
102
}
330
2A
100
AcDbVisualStyle
  2
3dWireframe
 70
     5
 71
     0
 72
     2
 73
     0
 90
        0
 40
-0.6
 41
-30.0
 62
     5
 63
     7
421
 16777215
 74
     1
 91
        4
 64
     7
 65
   257
 75
     1
175
     1
 42
1.0
 92
        0
 66
   257
 43
1.0
 76
     1
 77
     6
 78
     2
 67
     7
 79
     5
170
     0
171
     0
290
     0
174
     0
 93
        1
 44
0.0
173
     0
291
     0
 45
0.0
1001
ACAD
1000
AcDbSavedByObjectVersion
1070
     0
  0
VISUALSTYLE
  5
32
102
{ACAD_REACTORS
330
2A
102
}
330
2A
100
AcDbVisualStyle
  2
Basic
 70
     7
 71
     1
 72
     0
 73
     1
 90
        0
 40
-0.6
 41
-30.0
 62
     5
 63
     7
421
 16777215
 74
     0
 91
        4
 64
     7
 65
   257
 75
     1
175
     1
 42
1.0
 92
        8
 66
     7
 43
1.0
 76
     1
 77
     6
 78
     2
 67
     7
 79
     5
170
     0
171
     0
290
     0
174
     0
 93
        1
 44
0.0
173
     0
291
     1
 45
0.0
1001
ACAD
1000
AcDbSavedByObjectVersion
1070
     0
  0
VISUALSTYLE
  5
36
102
{ACAD_REACTORS
330
2A
102
}
330
2A
100
AcDbVisualStyle
  2
Brighten
 70
    12
 71
     2
 72
     2
 73
     0
 90
        0
 40
-0.6
 41
-30.0
 62
     5
 63
     7
421
 16777215
 74
     1
 91
        4
 64
     7
 65
   257
 75
     1
175
     1
 42
1.0
 92
        8
 66
     7
 43
1.0
 76
     1
 77
     6
 78
     2
 67
     7
 79
     5
170
     0
171
     0
290
     0
174
     0
 93
        1
 44
50.0
173
     0
291
     1
 45
0.0
1001
ACAD
1000
AcDbSavedByObjectVersion
1070
     0
  0
VISUALSTYLE
  5
3A
102
{ACAD_REACTORS
330
2A
102
}
330
2A
100
AcDbVisualStyle
  2
ColorChange
 70
    16
 71
     2
 72
     2
 73
     3
 90
        0
 40
-0.6
 41
-30.0
 62
     5
 63
     8
421
  8421504
 74
     1
 91
        4
 64
     7
 65
   257
 75
     1
175
     1
 42
1.0
 92
        8
 66
     8
424
  8421504
 43
1.0
 76
     1
 77
     6
 78
     2
 67
     7
 79
     5
170
     0
171
     0
290
     0
174
     0
 93
        1
 44
0.0
173
     0
291
     1
 45
0.0
1001
ACAD
1000
AcDbSavedByObjectVersion
1070
     0
  0
VISUALSTYLE
  5
34
102
{ACAD_REACTORS
330
2A
102
}
330
2A
100
AcDbVisualStyle
  2
Conceptual
 70
     9
 71
     3
 72
     2
 73
     0
 90
        0
 40
-0.6
 41
-30.0
 62
     5
 63
     7
421
 16777215
 74
     2
 91
        2
 64
     7
 65
   257
 75
     1
175
     1
 42
40.0
 92
        8
 66
     7
 43
1.0
 76
     1
 77
     6
 78
     2
 67
     7
 79
     3
170
     0
171
     0
290
     0
174
     0
 93
        1
 44
0.0
173
     0
291
     0
 45
0.0
1001
ACAD
1000
AcDbSavedByObjectVersion
1070
     0
  0
VISUALSTYLE
  5
35
102
{ACAD_REACTORS
330
2A
102
}
330
2A
100
AcDbVisualStyle
  2
Dim
 70
    11
 71
     2
 72
     2
 73
     0
 90
        0
 40
-0.6
 41
-30.0
 62
     5
 63
     7
421
 16777215
 74
     1
 91
        4
 64
     7
 65
   257
 75
     1
175
     1
 42
1.0
 92
        8
 66
     7
 43
1.0
 76
     1
 77
     6
 78
     2
 67
     7
 79
     5
170
     0
171
     0
290
     0
174
     0
 93
        1
 44
-50.0
173
     0
291
     1
 45
0.0
1001
ACAD
1000
AcDbSavedByObjectVersion
1070
     0
  0
VISUALSTYLE
  5
39
102
{ACAD_REACTORS
330
2A
102
}
330
2A
100
AcDbVisualStyle
  2
Facepattern
 70
    15
 71
     2
 72
     2
 73
     0
 90
        0
 40
-0.6
 41
-30.0
 62
     5
 63
     7
421
 16777215
 74
     1
 91
        4
 64
     7
 65
   257
 75
     1
175
     1
 42
1.0
 92
        8
 66
     7
 43
1.0
 76
     1
 77
     6
 78
     2
 67
     7
 79
     5
170
     0
171
     0
290
     0
174
     0
 93
        1
 44
0.0
173
     0
291
     1
 45
0.0
1001
ACAD
1000
AcDbSavedByObjectVersion
1070
     0
  0
VISUALSTYLE
  5
2B
102
{ACAD_REACTORS
330
2A
102
}
330
2A
100
AcDbVisualStyle
  2
Flat
 70
     0
 71
     2
 72
     1
 73
     1
 90
        2
 40
-0.6
 41
30.0
 62
     5
 63
     7
421
 16777215
 74
     0
 91
        4
 64
     7
 65
   257
 75
     1
175
     1
 42
1.0
 92
        8
 66
     7
 43
1.0
 76
     1
 77
     6
 78
     2
 67
     7
 79
     5
170
     0
171
     0
290
     0
174
     0
 93
       13
 44
0.0
173
     0
291
     1
 45
0.0
1001
ACAD
1000
AcDbSavedByObjectVersion
1070
     0
  0
VISUALSTYLE
  5
2C
102
{ACAD_REACTORS
330
2A
102
}
330
2A
100
AcDbVisualStyle
  2
FlatWithEdges
 70
     1
 71
     2
 72
     1
 73
     1
 90
        2
 40
-0.6
 41
30.0
 62
     5
 63
     7
421
 16777215
 74
     1
 91
        4
 64
     7
 65
   257
 75
     1
175
     1
 42
1.0
 92
        0
 66
   257
 43
1.0
 76
     1
 77
     6
 78
     2
 67
     7
 79
     5
170
     0
171
     0
290
     0
174
     0
 93
       13
 44
0.0
173
     0
291
     1
 45
0.0
1001
ACAD
1000
AcDbSavedByObjectVersion
1070
     0
  0
VISUALSTYLE
  5
2D
102
{ACAD_REACTORS
330
2A
102
}
330
2A
100
AcDbVisualStyle
  2
Gouraud
 70
     2
 71
     2
 72
     2
 73
     1
 90
        2
 40
-0.6
 41
30.0
 62
     5
 63
     7
421
 16777215
 74
     0
 91
        4
 64
     7
 65
   257
 75
     1
175
     1
 42
1.0
 92
        0
 66
     7
 43
1.0
 76
     1
 77
     6
 78
     2
 67
     7
 79
     5
170
     0
171
     0
290
     0
174
     0
 93
       13
 44
0.0
173
     0
291
     1
 45
0.0
1001
ACAD
1000
AcDbSavedByObjectVersion
1070
     0
  0
VISUALSTYLE
  5
2E
102
{ACAD_REACTORS
330
2A
102
}
330
2A
100
AcDbVisualStyle
  2
GouraudWithEdges
 70
     3
 71
     2
 72
     2
 73
     1
 90
        2
 40
-0.6
 41
30.0
 62
     5
 63
     7
421
 16777215
 74
     1
 91
        4
 64
     7
 65
   257
 75
     1
175
     1
 42
1.0
 92
        0
 66
   257
 43
1.0
 76
     1
 77
     6
 78
     2
 67
     7
 79
     5
170
     0
171
     0
290
     0
174
     0
 93
       13
 44
0.0
173
     0
291
     1
 45
0.0
1001
ACAD
1000
AcDbSavedByObjectVersion
1070
     0
  0
VISUALSTYLE
  5
38
102
{ACAD_REACTORS
330
2A
102
}
330
2A
100
AcDbVisualStyle
  2
Linepattern
 70
    14
 71
     2
 72
     2
 73
     0
 90
        0
 40
-0.6
 41
-30.0
 62
     5
 63
     7
421
 16777215
 74
     1
 91
        4
 64
     7
 65
   257
 75
     7
175
     7
 42
1.0
 92
        8
 66
     7
 43
1.0
 76
     1
 77
     6
 78
     2
 67
     7
 79
     5
170
     0
171
     0
290
     0
174
     0
 93
        1
 44
0.0
173
     0
291
     1
 45
0.0
1001
ACAD
1000
AcDbSavedByObjectVersion
1070
     0
  0
VISUALSTYLE
  5
33
102
{ACAD_REACTORS
330
2A
102
}
330
2A
100
AcDbVisualStyle
  2
Realistic
 70
     8
 71
     2
 72
     2
 73
     0
 90
        0
 40
-0.6
 41
-30.0
 62
     5
 63
     7
421
 16777215
 74
     1
 91
        0
 64
     7
 65
   257
 75
     1
175
     1
 42
1.0
 92
        8
 66
     8
424
  7895160
 43
1.0
 76
     1
 77
     6
 78
     2
 67
     7
 79
     5
170
     0
171
     0
290
     0
174
     0
 93
       13
 44
0.0
173
     0
291
     0
 45
0.0
1001
ACAD
1000
AcDbSavedByObjectVersion
1070
     0
  0
VISUALSTYLE
  5
37
102
{ACAD_REACTORS
330
2A
102
}
330
2A
100
AcDbVisualStyle
  2
Thicken
 70
    13
 71
     2
 72
     2
 73
     0
 90
        0
 40
-0.6
 41
-30.0
 62
     5
 63
     7
421
 16777215
 74
     1
 91
        4
 64
     7
 65
   257
 75
     1
175
     1
 42
1.0
 92
       12
 66
     7
 43
1.0
 76
     1
 77
     6
 78
     2
 67
     7
 79
     5
170
     0
171
     0
290
     0
174
     0
 93
        1
 44
0.0
173
     0
291
     1
 45
0.0
1001
ACAD
1000
AcDbSavedByObjectVersion
1070
     0
  0
ENDSEC
  0
EOF
